#usda 1.0
(
    metersPerUnit = 100000
    upAxis = "Z"
    doc = "Constellation preset='starlink': Starlink Shell 1 style — LEO 550 km, inc 53°. Generated by tools/gen_constellation.py. ALT=550.0 km, INC=53.0°, planes=6, sats/plane=8. Defined in Earth's equatorial frame — the 23.5° axial tilt is applied at the overview.usda level."
)

def Xform "World"
{
    def Xform "Constellation"
    {
        def Scope "Looks"
        {

        def Material "PlaneMat_00"
        {
            token outputs:surface.connect = </World/Constellation/Looks/PlaneMat_00/Shader.outputs:surface>
            def Shader "Shader"
            {
                uniform token info:id = "UsdPreviewSurface"
                color3f inputs:diffuseColor = (0.02, 0.02, 0.025)
                color3f inputs:emissiveColor = (0.95, 0.32, 0.32)
                float inputs:metallic = 0.0
                float inputs:roughness = 1.0
                int inputs:useSpecularWorkflow = 0
                token outputs:surface
            }
        }
        def Material "SatMat_00"
        {
            token outputs:surface.connect = </World/Constellation/Looks/SatMat_00/Shader.outputs:surface>
            def Shader "Shader"
            {
                uniform token info:id = "UsdPreviewSurface"
                color3f inputs:diffuseColor = (0.02, 0.02, 0.025)
                color3f inputs:emissiveColor = (4.20, 1.45, 1.45)
                float inputs:metallic = 0.0
                float inputs:roughness = 1.0
                int inputs:useSpecularWorkflow = 0
                token outputs:surface
            }
        }
        def Material "PlaneMat_01"
        {
            token outputs:surface.connect = </World/Constellation/Looks/PlaneMat_01/Shader.outputs:surface>
            def Shader "Shader"
            {
                uniform token info:id = "UsdPreviewSurface"
                color3f inputs:diffuseColor = (0.02, 0.02, 0.025)
                color3f inputs:emissiveColor = (0.95, 0.95, 0.32)
                float inputs:metallic = 0.0
                float inputs:roughness = 1.0
                int inputs:useSpecularWorkflow = 0
                token outputs:surface
            }
        }
        def Material "SatMat_01"
        {
            token outputs:surface.connect = </World/Constellation/Looks/SatMat_01/Shader.outputs:surface>
            def Shader "Shader"
            {
                uniform token info:id = "UsdPreviewSurface"
                color3f inputs:diffuseColor = (0.02, 0.02, 0.025)
                color3f inputs:emissiveColor = (4.20, 4.20, 1.45)
                float inputs:metallic = 0.0
                float inputs:roughness = 1.0
                int inputs:useSpecularWorkflow = 0
                token outputs:surface
            }
        }
        def Material "PlaneMat_02"
        {
            token outputs:surface.connect = </World/Constellation/Looks/PlaneMat_02/Shader.outputs:surface>
            def Shader "Shader"
            {
                uniform token info:id = "UsdPreviewSurface"
                color3f inputs:diffuseColor = (0.02, 0.02, 0.025)
                color3f inputs:emissiveColor = (0.32, 0.95, 0.32)
                float inputs:metallic = 0.0
                float inputs:roughness = 1.0
                int inputs:useSpecularWorkflow = 0
                token outputs:surface
            }
        }
        def Material "SatMat_02"
        {
            token outputs:surface.connect = </World/Constellation/Looks/SatMat_02/Shader.outputs:surface>
            def Shader "Shader"
            {
                uniform token info:id = "UsdPreviewSurface"
                color3f inputs:diffuseColor = (0.02, 0.02, 0.025)
                color3f inputs:emissiveColor = (1.45, 4.20, 1.45)
                float inputs:metallic = 0.0
                float inputs:roughness = 1.0
                int inputs:useSpecularWorkflow = 0
                token outputs:surface
            }
        }
        def Material "PlaneMat_03"
        {
            token outputs:surface.connect = </World/Constellation/Looks/PlaneMat_03/Shader.outputs:surface>
            def Shader "Shader"
            {
                uniform token info:id = "UsdPreviewSurface"
                color3f inputs:diffuseColor = (0.02, 0.02, 0.025)
                color3f inputs:emissiveColor = (0.32, 0.95, 0.95)
                float inputs:metallic = 0.0
                float inputs:roughness = 1.0
                int inputs:useSpecularWorkflow = 0
                token outputs:surface
            }
        }
        def Material "SatMat_03"
        {
            token outputs:surface.connect = </World/Constellation/Looks/SatMat_03/Shader.outputs:surface>
            def Shader "Shader"
            {
                uniform token info:id = "UsdPreviewSurface"
                color3f inputs:diffuseColor = (0.02, 0.02, 0.025)
                color3f inputs:emissiveColor = (1.45, 4.20, 4.20)
                float inputs:metallic = 0.0
                float inputs:roughness = 1.0
                int inputs:useSpecularWorkflow = 0
                token outputs:surface
            }
        }
        def Material "PlaneMat_04"
        {
            token outputs:surface.connect = </World/Constellation/Looks/PlaneMat_04/Shader.outputs:surface>
            def Shader "Shader"
            {
                uniform token info:id = "UsdPreviewSurface"
                color3f inputs:diffuseColor = (0.02, 0.02, 0.025)
                color3f inputs:emissiveColor = (0.32, 0.32, 0.95)
                float inputs:metallic = 0.0
                float inputs:roughness = 1.0
                int inputs:useSpecularWorkflow = 0
                token outputs:surface
            }
        }
        def Material "SatMat_04"
        {
            token outputs:surface.connect = </World/Constellation/Looks/SatMat_04/Shader.outputs:surface>
            def Shader "Shader"
            {
                uniform token info:id = "UsdPreviewSurface"
                color3f inputs:diffuseColor = (0.02, 0.02, 0.025)
                color3f inputs:emissiveColor = (1.45, 1.45, 4.20)
                float inputs:metallic = 0.0
                float inputs:roughness = 1.0
                int inputs:useSpecularWorkflow = 0
                token outputs:surface
            }
        }
        def Material "PlaneMat_05"
        {
            token outputs:surface.connect = </World/Constellation/Looks/PlaneMat_05/Shader.outputs:surface>
            def Shader "Shader"
            {
                uniform token info:id = "UsdPreviewSurface"
                color3f inputs:diffuseColor = (0.02, 0.02, 0.025)
                color3f inputs:emissiveColor = (0.95, 0.32, 0.95)
                float inputs:metallic = 0.0
                float inputs:roughness = 1.0
                int inputs:useSpecularWorkflow = 0
                token outputs:surface
            }
        }
        def Material "SatMat_05"
        {
            token outputs:surface.connect = </World/Constellation/Looks/SatMat_05/Shader.outputs:surface>
            def Shader "Shader"
            {
                uniform token info:id = "UsdPreviewSurface"
                color3f inputs:diffuseColor = (0.02, 0.02, 0.025)
                color3f inputs:emissiveColor = (4.20, 1.45, 4.20)
                float inputs:metallic = 0.0
                float inputs:roughness = 1.0
                int inputs:useSpecularWorkflow = 0
                token outputs:surface
            }
        }
        }

        def BasisCurves "Ring_000" (
            prepend apiSchemas = ["MaterialBindingAPI"]
        )
        {
            int[] curveVertexCounts = [96]
            point3f[] points = [(69.2100, 0.0000, 0.0000), (69.0587, 2.7528, 3.6531), (68.6054, 5.4935, 7.2902), (67.8521, 8.2102, 10.8954), (66.8021, 10.8911, 14.4529), (65.4600, 13.5243, 17.9473), (63.8317, 16.0983, 21.3632), (61.9242, 18.6020, 24.6857), (59.7460, 21.0243, 27.9002), (57.3065, 23.3547, 30.9927), (54.6164, 25.5830, 33.9497), (51.6875, 27.6993, 36.7583), (48.5326, 29.6946, 39.4061), (45.1655, 31.5601, 41.8816), (41.6008, 33.2875, 44.1740), (37.8543, 34.8693, 46.2732), (33.9422, 36.2987, 48.1700), (29.8817, 37.5694, 49.8563), (25.6906, 38.6758, 51.3245), (21.3871, 39.6130, 52.5683), (16.9901, 40.3771, 53.5822), (12.5187, 40.9646, 54.3618), (7.9927, 41.3729, 54.9037), (3.4317, 41.6004, 55.2056), (-1.1443, 41.6459, 55.2660), (-5.7153, 41.5094, 55.0848), (-10.2613, 41.1913, 54.6627), (-14.7625, 40.6931, 54.0015), (-19.1991, 40.0169, 53.1043), (-23.5517, 39.1658, 51.9748), (-27.8013, 38.1434, 50.6181), (-31.9294, 36.9543, 49.0400), (-35.9179, 35.6035, 47.2474), (-39.7493, 34.0970, 45.2483), (-43.4069, 32.4415, 43.0513), (-46.8747, 30.6441, 40.6661), (-50.1375, 28.7127, 38.1030), (-53.1810, 26.6557, 35.3733), (-55.9921, 24.4822, 32.4890), (-58.5583, 22.2016, 29.4626), (-60.8684, 19.8240, 26.3073), (-62.9123, 17.3596, 23.0370), (-64.6812, 14.8194, 19.6660), (-66.1672, 12.2143, 16.2090), (-67.3639, 9.5559, 12.6811), (-68.2661, 6.8556, 9.0977), (-68.8697, 4.1254, 5.4746), (-69.1722, 1.3771, 1.8275), (-69.1722, -1.3771, -1.8275), (-68.8697, -4.1254, -5.4746), (-68.2661, -6.8556, -9.0977), (-67.3639, -9.5559, -12.6811), (-66.1672, -12.2143, -16.2090), (-64.6812, -14.8194, -19.6660), (-62.9123, -17.3596, -23.0370), (-60.8684, -19.8240, -26.3073), (-58.5583, -22.2016, -29.4626), (-55.9921, -24.4822, -32.4890), (-53.1810, -26.6557, -35.3733), (-50.1375, -28.7127, -38.1030), (-46.8747, -30.6441, -40.6661), (-43.4069, -32.4415, -43.0513), (-39.7493, -34.0970, -45.2483), (-35.9179, -35.6035, -47.2474), (-31.9294, -36.9543, -49.0400), (-27.8013, -38.1434, -50.6181), (-23.5517, -39.1658, -51.9748), (-19.1991, -40.0169, -53.1043), (-14.7625, -40.6931, -54.0015), (-10.2613, -41.1913, -54.6627), (-5.7153, -41.5094, -55.0848), (-1.1443, -41.6459, -55.2660), (3.4317, -41.6004, -55.2056), (7.9927, -41.3729, -54.9037), (12.5187, -40.9646, -54.3618), (16.9901, -40.3771, -53.5822), (21.3871, -39.6130, -52.5683), (25.6906, -38.6758, -51.3245), (29.8817, -37.5694, -49.8563), (33.9422, -36.2987, -48.1700), (37.8543, -34.8693, -46.2732), (41.6008, -33.2875, -44.1740), (45.1655, -31.5601, -41.8816), (48.5326, -29.6946, -39.4061), (51.6875, -27.6993, -36.7583), (54.6164, -25.5830, -33.9497), (57.3065, -23.3547, -30.9927), (59.7460, -21.0243, -27.9002), (61.9242, -18.6020, -24.6857), (63.8317, -16.0983, -21.3632), (65.4600, -13.5243, -17.9473), (66.8021, -10.8911, -14.4529), (67.8521, -8.2102, -10.8954), (68.6054, -5.4935, -7.2902), (69.0587, -2.7528, -3.6531), (69.2100, -0.0000, -0.0000)]
            color3f[] primvars:displayColor = [(0.0950, 0.0333, 0.0333)] (
                interpolation = "constant"
            )
            custom uniform bool primvars:doNotCastShadows = 1
            float[] primvars:widths = [0.16] (
                interpolation = "constant"
            )
            uniform token type = "linear"
            float[] widths = [0.16]
            rel material:binding = </World/Constellation/Looks/PlaneMat_00>
        }
        def BasisCurves "Ring_001" (
            prepend apiSchemas = ["MaterialBindingAPI"]
        )
        {
            int[] curveVertexCounts = [96]
            point3f[] points = [(21.3871, 65.8226, 0.0000), (18.7223, 66.5294, 3.6531), (15.9756, 66.9452, 7.2902), (13.1590, 67.0683, 10.8954), (10.2850, 66.8981, 14.4529), (7.3659, 66.4354, 17.9473), (4.4147, 65.6822, 21.3632), (1.4441, 64.6418, 24.6857), (-1.5328, 63.3187, 27.9002), (-4.5029, 61.7187, 30.9927), (-7.4534, 59.8489, 33.9497), (-10.3713, 57.7173, 36.7583), (-13.2439, 55.3334, 39.4061), (-16.0585, 52.7075, 41.8816), (-18.8029, 49.8511, 44.1740), (-21.4651, 46.7768, 46.2732), (-24.0334, 43.4979, 48.1700), (-26.4967, 40.0288, 49.8563), (-28.8440, 36.3846, 51.3245), (-31.0653, 32.5814, 52.5683), (-33.1507, 28.6357, 53.5822), (-35.0911, 24.5648, 54.3618), (-36.8781, 20.3864, 54.9037), (-38.5039, 16.1190, 55.2056), (-39.9612, 11.7810, 55.2660), (-41.2439, 7.3915, 55.0848), (-42.3462, 2.9697, 54.6627), (-43.2633, -1.4651, 54.0015), (-43.9912, -5.8935, 53.1043), (-44.5268, -10.2961, 51.9748), (-44.8677, -14.6537, 50.6181), (-45.0123, -18.9472, 49.0400), (-44.9602, -23.1579, 47.2474), (-44.7114, -27.2673, 45.2483), (-44.2672, -31.2574, 43.0513), (-43.6293, -35.1109, 40.6661), (-42.8007, -38.8109, 38.1030), (-41.7849, -42.3411, 35.3733), (-40.5865, -45.6862, 32.4890), (-39.2105, -48.8315, 29.4626), (-37.6631, -51.7633, 26.3073), (-35.9510, -54.4688, 23.0370), (-34.0817, -56.9360, 19.6660), (-32.0633, -59.1543, 16.2090), (-29.9048, -61.1140, 12.6811), (-27.6155, -62.8064, 9.0977), (-25.2054, -64.2241, 5.4746), (-22.6851, -65.3611, 1.8275), (-20.0656, -66.2122, -1.8275), (-17.3584, -66.7738, -5.4746), (-14.5753, -67.0434, -9.0977), (-11.7284, -67.0198, -12.6811), (-8.8303, -66.7032, -16.2090), (-5.8935, -66.0949, -19.6660), (-2.9310, -65.1976, -23.0370), (0.0444, -64.0152, -26.3073), (3.0195, -62.5529, -29.4626), (5.9815, -60.8170, -32.4890), (8.9173, -58.8152, -35.3733), (11.8141, -56.5563, -38.1030), (14.6592, -54.0500, -40.6661), (17.4402, -51.3074, -43.0513), (20.1450, -48.3404, -45.2483), (22.7617, -45.1620, -47.2474), (25.2789, -41.7862, -49.0400), (27.6855, -38.2276, -50.6181), (29.9710, -34.5019, -51.9748), (32.1255, -30.6253, -53.1043), (34.1396, -26.6148, -54.0015), (36.0043, -22.4879, -54.6627), (37.7116, -18.2627, -55.0848), (39.2540, -13.9576, -55.2660), (40.6248, -9.5915, -55.2056), (41.8179, -5.1834, -54.9037), (42.8281, -0.7527, -54.3618), (43.6511, 3.6813, -53.5822), (44.2832, 8.0992, -52.5683), (44.7217, 12.4817, -51.3245), (44.9646, 16.8096, -49.8563), (45.0109, 21.0640, -48.1700), (44.8603, 25.2263, -46.2732), (44.5136, 29.2783, -44.1740), (43.9723, 33.2023, -41.8816), (43.2387, 36.9811, -39.4061), (42.3160, 40.5982, -36.7583), (41.2082, 44.0377, -33.9497), (39.9203, 47.2847, -30.9927), (38.4578, 50.3249, -27.9002), (36.8272, 53.1451, -24.6857), (35.0355, 55.7329, -21.3632), (33.0906, 58.0769, -17.9473), (31.0010, 60.1671, -14.4529), (28.7759, 61.9941, -10.8954), (26.4249, 63.5500, -7.2902), (23.9584, 64.8281, -3.6531), (21.3871, 65.8226, -0.0000)]
            color3f[] primvars:displayColor = [(0.0950, 0.0950, 0.0333)] (
                interpolation = "constant"
            )
            custom uniform bool primvars:doNotCastShadows = 1
            float[] primvars:widths = [0.16] (
                interpolation = "constant"
            )
            uniform token type = "linear"
            float[] widths = [0.16]
            rel material:binding = </World/Constellation/Looks/PlaneMat_01>
        }
        def BasisCurves "Ring_002" (
            prepend apiSchemas = ["MaterialBindingAPI"]
        )
        {
            int[] curveVertexCounts = [96]
            point3f[] points = [(-55.9921, 40.6806, 0.0000), (-57.4877, 38.3646, 3.6531), (-58.7319, 35.8809, 7.2902), (-59.7194, 33.2402, 10.8954), (-60.4456, 30.4542, 14.4529), (-60.9076, 27.5351, 17.9473), (-61.1033, 24.4955, 21.3632), (-61.0317, 21.3488, 24.6857), (-60.6933, 18.1088, 27.9002), (-60.0895, 14.7896, 30.9927), (-59.2229, 11.4057, 33.9497), (-58.0973, 7.9719, 36.7583), (-56.7178, 4.5033, 39.4061), (-55.0902, 1.0150, 41.8816), (-53.2217, -2.4778, 44.1740), (-51.1204, -5.9597, 46.2732), (-48.7957, -9.4156, 48.1700), (-46.2576, -12.8302, 49.8563), (-43.5172, -16.1888, 51.3245), (-40.5865, -19.4766, 52.5683), (-37.4783, -22.6793, 53.5822), (-34.2062, -25.7827, 54.3618), (-30.7846, -28.7734, 54.9037), (-27.2284, -31.6383, 55.2056), (-23.5531, -34.3649, 55.2660), (-19.7748, -36.9412, 55.0848), (-15.9100, -39.3559, 54.6627), (-11.9757, -41.5986, 54.0015), (-7.9890, -43.6593, 53.1043), (-3.9674, -45.5292, 51.9748), (0.0716, -47.1999, 50.6181), (4.1103, -48.6643, 49.0400), (8.1310, -49.9158, 47.2474), (12.1161, -50.9491, 45.2483), (16.0483, -51.7596, 43.0513), (19.9102, -52.3438, 40.6661), (23.6852, -52.6991, 38.1030), (27.3565, -52.8240, 35.3733), (30.9083, -52.7178, 32.4890), (34.3248, -52.3812, 29.4626), (37.5913, -51.8155, 26.3073), (40.6934, -51.0232, 23.0370), (43.6176, -50.0078, 19.6660), (46.3510, -48.7737, 16.2090), (48.8818, -47.3264, 12.6811), (51.1988, -45.6721, 9.0977), (53.2919, -43.8181, 5.4746), (55.1520, -41.7725, 1.8275), (56.7709, -39.5442, -1.8275), (58.1416, -37.1431, -5.4746), (59.2580, -34.5795, -9.0977), (60.1154, -31.8647, -12.6811), (60.7098, -29.0105, -16.2090), (61.0388, -26.0295, -19.6660), (61.1009, -22.9347, -23.0370), (60.8958, -19.7396, -26.3073), (60.4244, -16.4582, -29.4626), (59.6888, -13.1048, -32.4890), (58.6922, -9.6941, -35.3733), (57.4390, -6.2410, -38.1030), (55.9345, -2.7606, -40.6661), (54.1855, 0.7318, -43.0513), (52.1996, 4.2210, -45.2483), (49.9854, 7.6918, -47.2474), (47.5526, 11.1290, -49.0400), (44.9119, 14.5175, -50.6181), (42.0748, 17.8425, -51.9748), (39.0537, 21.0895, -53.1043), (35.8619, 24.2442, -54.0015), (32.5132, 27.2930, -54.6627), (29.0224, 30.2224, -55.0848), (25.4046, 33.0196, -55.2660), (21.6758, 35.6725, -55.2056), (17.8522, 38.1694, -54.9037), (13.9505, 40.4994, -54.3618), (9.9878, 42.6523, -53.5822), (5.9815, 44.6186, -52.5683), (1.9490, 46.3899, -51.3245), (-2.0921, 47.9583, -49.8563), (-6.1240, 49.3170, -48.1700), (-10.1291, 50.4601, -46.2732), (-14.0899, 51.3825, -44.1740), (-17.9891, 52.0802, -41.8816), (-21.8096, 52.5502, -39.4061), (-25.5348, 52.7904, -36.7583), (-29.1483, 52.7998, -33.9497), (-32.6344, 52.5783, -30.9927), (-35.9777, 52.1268, -27.9002), (-39.1638, 51.4475, -24.6857), (-42.1786, 50.5431, -21.3632), (-45.0089, 49.4178, -17.9473), (-47.6424, 48.0763, -14.4529), (-50.0676, 46.5247, -10.8954), (-52.2739, 44.7696, -7.2902), (-54.2516, 42.8187, -3.6531), (-55.9921, 40.6806, -0.0000)]
            color3f[] primvars:displayColor = [(0.0333, 0.0950, 0.0333)] (
                interpolation = "constant"
            )
            custom uniform bool primvars:doNotCastShadows = 1
            float[] primvars:widths = [0.16] (
                interpolation = "constant"
            )
            uniform token type = "linear"
            float[] widths = [0.16]
            rel material:binding = </World/Constellation/Looks/PlaneMat_02>
        }
        def BasisCurves "Ring_003" (
            prepend apiSchemas = ["MaterialBindingAPI"]
        )
        {
            int[] curveVertexCounts = [96]
            point3f[] points = [(-55.9921, -40.6806, 0.0000), (-54.2516, -42.8187, 3.6531), (-52.2739, -44.7696, 7.2902), (-50.0676, -46.5247, 10.8954), (-47.6424, -48.0763, 14.4529), (-45.0089, -49.4178, 17.9473), (-42.1786, -50.5431, 21.3632), (-39.1638, -51.4475, 24.6857), (-35.9777, -52.1268, 27.9002), (-32.6344, -52.5783, 30.9927), (-29.1483, -52.7998, 33.9497), (-25.5348, -52.7904, 36.7583), (-21.8096, -52.5502, 39.4061), (-17.9891, -52.0802, 41.8816), (-14.0899, -51.3825, 44.1740), (-10.1291, -50.4601, 46.2732), (-6.1240, -49.3170, 48.1700), (-2.0921, -47.9583, 49.8563), (1.9490, -46.3899, 51.3245), (5.9815, -44.6186, 52.5683), (9.9878, -42.6523, 53.5822), (13.9505, -40.4994, 54.3618), (17.8522, -38.1694, 54.9037), (21.6758, -35.6725, 55.2056), (25.4046, -33.0196, 55.2660), (29.0224, -30.2224, 55.0848), (32.5132, -27.2930, 54.6627), (35.8619, -24.2442, 54.0015), (39.0537, -21.0895, 53.1043), (42.0748, -17.8425, 51.9748), (44.9119, -14.5175, 50.6181), (47.5526, -11.1290, 49.0400), (49.9854, -7.6918, 47.2474), (52.1996, -4.2210, 45.2483), (54.1855, -0.7318, 43.0513), (55.9345, 2.7606, 40.6661), (57.4390, 6.2410, 38.1030), (58.6922, 9.6941, 35.3733), (59.6888, 13.1048, 32.4890), (60.4244, 16.4582, 29.4626), (60.8958, 19.7396, 26.3073), (61.1009, 22.9347, 23.0370), (61.0388, 26.0295, 19.6660), (60.7098, 29.0105, 16.2090), (60.1154, 31.8647, 12.6811), (59.2580, 34.5795, 9.0977), (58.1416, 37.1431, 5.4746), (56.7709, 39.5442, 1.8275), (55.1520, 41.7725, -1.8275), (53.2919, 43.8181, -5.4746), (51.1988, 45.6721, -9.0977), (48.8818, 47.3264, -12.6811), (46.3510, 48.7737, -16.2090), (43.6176, 50.0078, -19.6660), (40.6934, 51.0232, -23.0370), (37.5913, 51.8155, -26.3073), (34.3248, 52.3812, -29.4626), (30.9083, 52.7178, -32.4890), (27.3565, 52.8240, -35.3733), (23.6852, 52.6991, -38.1030), (19.9102, 52.3438, -40.6661), (16.0483, 51.7596, -43.0513), (12.1161, 50.9491, -45.2483), (8.1310, 49.9158, -47.2474), (4.1103, 48.6643, -49.0400), (0.0716, 47.1999, -50.6181), (-3.9674, 45.5292, -51.9748), (-7.9890, 43.6593, -53.1043), (-11.9757, 41.5986, -54.0015), (-15.9100, 39.3559, -54.6627), (-19.7748, 36.9412, -55.0848), (-23.5531, 34.3649, -55.2660), (-27.2284, 31.6383, -55.2056), (-30.7846, 28.7734, -54.9037), (-34.2062, 25.7827, -54.3618), (-37.4783, 22.6793, -53.5822), (-40.5865, 19.4766, -52.5683), (-43.5172, 16.1888, -51.3245), (-46.2576, 12.8302, -49.8563), (-48.7957, 9.4156, -48.1700), (-51.1204, 5.9597, -46.2732), (-53.2217, 2.4778, -44.1740), (-55.0902, -1.0150, -41.8816), (-56.7178, -4.5033, -39.4061), (-58.0973, -7.9719, -36.7583), (-59.2229, -11.4057, -33.9497), (-60.0895, -14.7896, -30.9927), (-60.6933, -18.1088, -27.9002), (-61.0317, -21.3488, -24.6857), (-61.1033, -24.4955, -21.3632), (-60.9076, -27.5351, -17.9473), (-60.4456, -30.4542, -14.4529), (-59.7194, -33.2402, -10.8954), (-58.7319, -35.8809, -7.2902), (-57.4877, -38.3646, -3.6531), (-55.9921, -40.6806, -0.0000)]
            color3f[] primvars:displayColor = [(0.0333, 0.0950, 0.0950)] (
                interpolation = "constant"
            )
            custom uniform bool primvars:doNotCastShadows = 1
            float[] primvars:widths = [0.16] (
                interpolation = "constant"
            )
            uniform token type = "linear"
            float[] widths = [0.16]
            rel material:binding = </World/Constellation/Looks/PlaneMat_03>
        }
        def BasisCurves "Ring_004" (
            prepend apiSchemas = ["MaterialBindingAPI"]
        )
        {
            int[] curveVertexCounts = [96]
            point3f[] points = [(21.3871, -65.8226, 0.0000), (23.9584, -64.8281, 3.6531), (26.4249, -63.5500, 7.2902), (28.7759, -61.9941, 10.8954), (31.0010, -60.1671, 14.4529), (33.0906, -58.0769, 17.9473), (35.0355, -55.7329, 21.3632), (36.8272, -53.1451, 24.6857), (38.4578, -50.3249, 27.9002), (39.9203, -47.2847, 30.9927), (41.2082, -44.0377, 33.9497), (42.3160, -40.5982, 36.7583), (43.2387, -36.9811, 39.4061), (43.9723, -33.2023, 41.8816), (44.5136, -29.2783, 44.1740), (44.8603, -25.2263, 46.2732), (45.0109, -21.0640, 48.1700), (44.9646, -16.8096, 49.8563), (44.7217, -12.4817, 51.3245), (44.2832, -8.0992, 52.5683), (43.6511, -3.6813, 53.5822), (42.8281, 0.7527, 54.3618), (41.8179, 5.1834, 54.9037), (40.6248, 9.5915, 55.2056), (39.2540, 13.9576, 55.2660), (37.7116, 18.2627, 55.0848), (36.0043, 22.4879, 54.6627), (34.1396, 26.6148, 54.0015), (32.1255, 30.6253, 53.1043), (29.9710, 34.5019, 51.9748), (27.6855, 38.2276, 50.6181), (25.2789, 41.7862, 49.0400), (22.7617, 45.1620, 47.2474), (20.1450, 48.3404, 45.2483), (17.4402, 51.3074, 43.0513), (14.6592, 54.0500, 40.6661), (11.8141, 56.5563, 38.1030), (8.9173, 58.8152, 35.3733), (5.9815, 60.8170, 32.4890), (3.0195, 62.5529, 29.4626), (0.0444, 64.0152, 26.3073), (-2.9310, 65.1976, 23.0370), (-5.8935, 66.0949, 19.6660), (-8.8303, 66.7032, 16.2090), (-11.7284, 67.0198, 12.6811), (-14.5753, 67.0434, 9.0977), (-17.3584, 66.7738, 5.4746), (-20.0656, 66.2122, 1.8275), (-22.6851, 65.3611, -1.8275), (-25.2054, 64.2241, -5.4746), (-27.6155, 62.8064, -9.0977), (-29.9048, 61.1140, -12.6811), (-32.0633, 59.1543, -16.2090), (-34.0817, 56.9360, -19.6660), (-35.9510, 54.4688, -23.0370), (-37.6631, 51.7633, -26.3073), (-39.2105, 48.8315, -29.4626), (-40.5865, 45.6862, -32.4890), (-41.7849, 42.3411, -35.3733), (-42.8007, 38.8109, -38.1030), (-43.6293, 35.1109, -40.6661), (-44.2672, 31.2574, -43.0513), (-44.7114, 27.2673, -45.2483), (-44.9602, 23.1579, -47.2474), (-45.0123, 18.9472, -49.0400), (-44.8677, 14.6537, -50.6181), (-44.5268, 10.2961, -51.9748), (-43.9912, 5.8935, -53.1043), (-43.2633, 1.4651, -54.0015), (-42.3462, -2.9697, -54.6627), (-41.2439, -7.3915, -55.0848), (-39.9612, -11.7810, -55.2660), (-38.5039, -16.1190, -55.2056), (-36.8781, -20.3864, -54.9037), (-35.0911, -24.5648, -54.3618), (-33.1507, -28.6357, -53.5822), (-31.0653, -32.5814, -52.5683), (-28.8440, -36.3846, -51.3245), (-26.4967, -40.0288, -49.8563), (-24.0334, -43.4979, -48.1700), (-21.4651, -46.7768, -46.2732), (-18.8029, -49.8511, -44.1740), (-16.0585, -52.7075, -41.8816), (-13.2439, -55.3334, -39.4061), (-10.3713, -57.7173, -36.7583), (-7.4534, -59.8489, -33.9497), (-4.5029, -61.7187, -30.9927), (-1.5328, -63.3187, -27.9002), (1.4441, -64.6418, -24.6857), (4.4147, -65.6822, -21.3632), (7.3659, -66.4354, -17.9473), (10.2850, -66.8981, -14.4529), (13.1590, -67.0683, -10.8954), (15.9756, -66.9452, -7.2902), (18.7223, -66.5294, -3.6531), (21.3871, -65.8226, -0.0000)]
            color3f[] primvars:displayColor = [(0.0333, 0.0333, 0.0950)] (
                interpolation = "constant"
            )
            custom uniform bool primvars:doNotCastShadows = 1
            float[] primvars:widths = [0.16] (
                interpolation = "constant"
            )
            uniform token type = "linear"
            float[] widths = [0.16]
            rel material:binding = </World/Constellation/Looks/PlaneMat_04>
        }
        def BasisCurves "Ring_005" (
            prepend apiSchemas = ["MaterialBindingAPI"]
        )
        {
            int[] curveVertexCounts = [96]
            point3f[] points = [(69.2100, -0.0000, 0.0000), (69.0587, 2.7528, 3.6531), (68.6054, 5.4935, 7.2902), (67.8521, 8.2102, 10.8954), (66.8021, 10.8911, 14.4529), (65.4600, 13.5243, 17.9473), (63.8317, 16.0983, 21.3632), (61.9242, 18.6020, 24.6857), (59.7460, 21.0243, 27.9002), (57.3065, 23.3547, 30.9927), (54.6164, 25.5830, 33.9497), (51.6875, 27.6993, 36.7583), (48.5326, 29.6946, 39.4061), (45.1655, 31.5601, 41.8816), (41.6008, 33.2875, 44.1740), (37.8543, 34.8693, 46.2732), (33.9422, 36.2987, 48.1700), (29.8817, 37.5694, 49.8563), (25.6906, 38.6758, 51.3245), (21.3871, 39.6130, 52.5683), (16.9901, 40.3771, 53.5822), (12.5187, 40.9646, 54.3618), (7.9927, 41.3729, 54.9037), (3.4317, 41.6004, 55.2056), (-1.1443, 41.6459, 55.2660), (-5.7153, 41.5094, 55.0848), (-10.2613, 41.1913, 54.6627), (-14.7625, 40.6931, 54.0015), (-19.1991, 40.0169, 53.1043), (-23.5517, 39.1658, 51.9748), (-27.8013, 38.1434, 50.6181), (-31.9294, 36.9543, 49.0400), (-35.9179, 35.6035, 47.2474), (-39.7493, 34.0970, 45.2483), (-43.4069, 32.4415, 43.0513), (-46.8747, 30.6441, 40.6661), (-50.1375, 28.7127, 38.1030), (-53.1810, 26.6557, 35.3733), (-55.9921, 24.4822, 32.4890), (-58.5583, 22.2016, 29.4626), (-60.8684, 19.8240, 26.3073), (-62.9123, 17.3596, 23.0370), (-64.6812, 14.8194, 19.6660), (-66.1672, 12.2143, 16.2090), (-67.3639, 9.5559, 12.6811), (-68.2661, 6.8556, 9.0977), (-68.8697, 4.1254, 5.4746), (-69.1722, 1.3771, 1.8275), (-69.1722, -1.3771, -1.8275), (-68.8697, -4.1254, -5.4746), (-68.2661, -6.8556, -9.0977), (-67.3639, -9.5559, -12.6811), (-66.1672, -12.2143, -16.2090), (-64.6812, -14.8194, -19.6660), (-62.9123, -17.3596, -23.0370), (-60.8684, -19.8240, -26.3073), (-58.5583, -22.2016, -29.4626), (-55.9921, -24.4822, -32.4890), (-53.1810, -26.6557, -35.3733), (-50.1375, -28.7127, -38.1030), (-46.8747, -30.6441, -40.6661), (-43.4069, -32.4415, -43.0513), (-39.7493, -34.0970, -45.2483), (-35.9179, -35.6035, -47.2474), (-31.9294, -36.9543, -49.0400), (-27.8013, -38.1434, -50.6181), (-23.5517, -39.1658, -51.9748), (-19.1991, -40.0169, -53.1043), (-14.7625, -40.6931, -54.0015), (-10.2613, -41.1913, -54.6627), (-5.7153, -41.5094, -55.0848), (-1.1443, -41.6459, -55.2660), (3.4317, -41.6004, -55.2056), (7.9927, -41.3729, -54.9037), (12.5187, -40.9646, -54.3618), (16.9901, -40.3771, -53.5822), (21.3871, -39.6130, -52.5683), (25.6906, -38.6758, -51.3245), (29.8817, -37.5694, -49.8563), (33.9422, -36.2987, -48.1700), (37.8543, -34.8693, -46.2732), (41.6008, -33.2875, -44.1740), (45.1655, -31.5601, -41.8816), (48.5326, -29.6946, -39.4061), (51.6875, -27.6993, -36.7583), (54.6164, -25.5830, -33.9497), (57.3065, -23.3547, -30.9927), (59.7460, -21.0243, -27.9002), (61.9242, -18.6020, -24.6857), (63.8317, -16.0983, -21.3632), (65.4600, -13.5243, -17.9473), (66.8021, -10.8911, -14.4529), (67.8521, -8.2102, -10.8954), (68.6054, -5.4935, -7.2902), (69.0587, -2.7528, -3.6531), (69.2100, -0.0000, -0.0000)]
            color3f[] primvars:displayColor = [(0.0950, 0.0333, 0.0950)] (
                interpolation = "constant"
            )
            custom uniform bool primvars:doNotCastShadows = 1
            float[] primvars:widths = [0.16] (
                interpolation = "constant"
            )
            uniform token type = "linear"
            float[] widths = [0.16]
            rel material:binding = </World/Constellation/Looks/PlaneMat_05>
        }


        def Sphere "Sat_000" (
            prepend apiSchemas = ["MaterialBindingAPI"]
        )
        {
            double radius = 0.55
            double3 xformOp:translate = (69.2100, 0.0000, 0.0000)
            uniform token[] xformOpOrder = ["xformOp:translate"]
            uniform bool primvars:doNotCastShadows = 1
            rel material:binding = </World/Constellation/Looks/SatMat_00>
        }
        def Sphere "Sat_001" (
            prepend apiSchemas = ["MaterialBindingAPI"]
        )
        {
            double radius = 0.55
            double3 xformOp:translate = (48.9389, 29.4521, 39.0843)
            uniform token[] xformOpOrder = ["xformOp:translate"]
            uniform bool primvars:doNotCastShadows = 1
            rel material:binding = </World/Constellation/Looks/SatMat_00>
        }
        def Sphere "Sat_002" (
            prepend apiSchemas = ["MaterialBindingAPI"]
        )
        {
            double radius = 0.55
            double3 xformOp:translate = (0.0000, 41.6516, 55.2736)
            uniform token[] xformOpOrder = ["xformOp:translate"]
            uniform bool primvars:doNotCastShadows = 1
            rel material:binding = </World/Constellation/Looks/SatMat_00>
        }
        def Sphere "Sat_003" (
            prepend apiSchemas = ["MaterialBindingAPI"]
        )
        {
            double radius = 0.55
            double3 xformOp:translate = (-48.9389, 29.4521, 39.0843)
            uniform token[] xformOpOrder = ["xformOp:translate"]
            uniform bool primvars:doNotCastShadows = 1
            rel material:binding = </World/Constellation/Looks/SatMat_00>
        }
        def Sphere "Sat_004" (
            prepend apiSchemas = ["MaterialBindingAPI"]
        )
        {
            double radius = 0.55
            double3 xformOp:translate = (-69.2100, 0.0000, 0.0000)
            uniform token[] xformOpOrder = ["xformOp:translate"]
            uniform bool primvars:doNotCastShadows = 1
            rel material:binding = </World/Constellation/Looks/SatMat_00>
        }
        def Sphere "Sat_005" (
            prepend apiSchemas = ["MaterialBindingAPI"]
        )
        {
            double radius = 0.55
            double3 xformOp:translate = (-48.9389, -29.4521, -39.0843)
            uniform token[] xformOpOrder = ["xformOp:translate"]
            uniform bool primvars:doNotCastShadows = 1
            rel material:binding = </World/Constellation/Looks/SatMat_00>
        }
        def Sphere "Sat_006" (
            prepend apiSchemas = ["MaterialBindingAPI"]
        )
        {
            double radius = 0.55
            double3 xformOp:translate = (-0.0000, -41.6516, -55.2736)
            uniform token[] xformOpOrder = ["xformOp:translate"]
            uniform bool primvars:doNotCastShadows = 1
            rel material:binding = </World/Constellation/Looks/SatMat_00>
        }
        def Sphere "Sat_007" (
            prepend apiSchemas = ["MaterialBindingAPI"]
        )
        {
            double radius = 0.55
            double3 xformOp:translate = (48.9389, -29.4521, -39.0843)
            uniform token[] xformOpOrder = ["xformOp:translate"]
            uniform bool primvars:doNotCastShadows = 1
            rel material:binding = </World/Constellation/Looks/SatMat_00>
        }
        def Sphere "Sat_008" (
            prepend apiSchemas = ["MaterialBindingAPI"]
        )
        {
            double radius = 0.55
            double3 xformOp:translate = (21.3871, 65.8226, 0.0000)
            uniform token[] xformOpOrder = ["xformOp:translate"]
            uniform bool primvars:doNotCastShadows = 1
            rel material:binding = </World/Constellation/Looks/SatMat_01>
        }
        def Sphere "Sat_009" (
            prepend apiSchemas = ["MaterialBindingAPI"]
        )
        {
            double radius = 0.55
            double3 xformOp:translate = (-12.8877, 55.6448, 39.0843)
            uniform token[] xformOpOrder = ["xformOp:translate"]
            uniform bool primvars:doNotCastShadows = 1
            rel material:binding = </World/Constellation/Looks/SatMat_01>
        }
        def Sphere "Sat_010" (
            prepend apiSchemas = ["MaterialBindingAPI"]
        )
        {
            double radius = 0.55
            double3 xformOp:translate = (-39.6130, 12.8711, 55.2736)
            uniform token[] xformOpOrder = ["xformOp:translate"]
            uniform bool primvars:doNotCastShadows = 1
            rel material:binding = </World/Constellation/Looks/SatMat_01>
        }
        def Sphere "Sat_011" (
            prepend apiSchemas = ["MaterialBindingAPI"]
        )
        {
            double radius = 0.55
            double3 xformOp:translate = (-43.1336, -37.4424, 39.0843)
            uniform token[] xformOpOrder = ["xformOp:translate"]
            uniform bool primvars:doNotCastShadows = 1
            rel material:binding = </World/Constellation/Looks/SatMat_01>
        }
        def Sphere "Sat_012" (
            prepend apiSchemas = ["MaterialBindingAPI"]
        )
        {
            double radius = 0.55
            double3 xformOp:translate = (-21.3871, -65.8226, 0.0000)
            uniform token[] xformOpOrder = ["xformOp:translate"]
            uniform bool primvars:doNotCastShadows = 1
            rel material:binding = </World/Constellation/Looks/SatMat_01>
        }
        def Sphere "Sat_013" (
            prepend apiSchemas = ["MaterialBindingAPI"]
        )
        {
            double radius = 0.55
            double3 xformOp:translate = (12.8877, -55.6448, -39.0843)
            uniform token[] xformOpOrder = ["xformOp:translate"]
            uniform bool primvars:doNotCastShadows = 1
            rel material:binding = </World/Constellation/Looks/SatMat_01>
        }
        def Sphere "Sat_014" (
            prepend apiSchemas = ["MaterialBindingAPI"]
        )
        {
            double radius = 0.55
            double3 xformOp:translate = (39.6130, -12.8711, -55.2736)
            uniform token[] xformOpOrder = ["xformOp:translate"]
            uniform bool primvars:doNotCastShadows = 1
            rel material:binding = </World/Constellation/Looks/SatMat_01>
        }
        def Sphere "Sat_015" (
            prepend apiSchemas = ["MaterialBindingAPI"]
        )
        {
            double radius = 0.55
            double3 xformOp:translate = (43.1336, 37.4424, -39.0843)
            uniform token[] xformOpOrder = ["xformOp:translate"]
            uniform bool primvars:doNotCastShadows = 1
            rel material:binding = </World/Constellation/Looks/SatMat_01>
        }
        def Sphere "Sat_016" (
            prepend apiSchemas = ["MaterialBindingAPI"]
        )
        {
            double radius = 0.55
            double3 xformOp:translate = (-55.9921, 40.6806, 0.0000)
            uniform token[] xformOpOrder = ["xformOp:translate"]
            uniform bool primvars:doNotCastShadows = 1
            rel material:binding = </World/Constellation/Looks/SatMat_02>
        }
        def Sphere "Sat_017" (
            prepend apiSchemas = ["MaterialBindingAPI"]
        )
        {
            double radius = 0.55
            double3 xformOp:translate = (-56.9039, 4.9383, 39.0843)
            uniform token[] xformOpOrder = ["xformOp:translate"]
            uniform bool primvars:doNotCastShadows = 1
            rel material:binding = </World/Constellation/Looks/SatMat_02>
        }
        def Sphere "Sat_018" (
            prepend apiSchemas = ["MaterialBindingAPI"]
        )
        {
            double radius = 0.55
            double3 xformOp:translate = (-24.4822, -33.6969, 55.2736)
            uniform token[] xformOpOrder = ["xformOp:translate"]
            uniform bool primvars:doNotCastShadows = 1
            rel material:binding = </World/Constellation/Looks/SatMat_02>
        }
        def Sphere "Sat_019" (
            prepend apiSchemas = ["MaterialBindingAPI"]
        )
        {
            double radius = 0.55
            double3 xformOp:translate = (22.2808, -52.5928, 39.0843)
            uniform token[] xformOpOrder = ["xformOp:translate"]
            uniform bool primvars:doNotCastShadows = 1
            rel material:binding = </World/Constellation/Looks/SatMat_02>
        }
        def Sphere "Sat_020" (
            prepend apiSchemas = ["MaterialBindingAPI"]
        )
        {
            double radius = 0.55
            double3 xformOp:translate = (55.9921, -40.6806, 0.0000)
            uniform token[] xformOpOrder = ["xformOp:translate"]
            uniform bool primvars:doNotCastShadows = 1
            rel material:binding = </World/Constellation/Looks/SatMat_02>
        }
        def Sphere "Sat_021" (
            prepend apiSchemas = ["MaterialBindingAPI"]
        )
        {
            double radius = 0.55
            double3 xformOp:translate = (56.9039, -4.9383, -39.0843)
            uniform token[] xformOpOrder = ["xformOp:translate"]
            uniform bool primvars:doNotCastShadows = 1
            rel material:binding = </World/Constellation/Looks/SatMat_02>
        }
        def Sphere "Sat_022" (
            prepend apiSchemas = ["MaterialBindingAPI"]
        )
        {
            double radius = 0.55
            double3 xformOp:translate = (24.4822, 33.6969, -55.2736)
            uniform token[] xformOpOrder = ["xformOp:translate"]
            uniform bool primvars:doNotCastShadows = 1
            rel material:binding = </World/Constellation/Looks/SatMat_02>
        }
        def Sphere "Sat_023" (
            prepend apiSchemas = ["MaterialBindingAPI"]
        )
        {
            double radius = 0.55
            double3 xformOp:translate = (-22.2808, 52.5928, -39.0843)
            uniform token[] xformOpOrder = ["xformOp:translate"]
            uniform bool primvars:doNotCastShadows = 1
            rel material:binding = </World/Constellation/Looks/SatMat_02>
        }
        def Sphere "Sat_024" (
            prepend apiSchemas = ["MaterialBindingAPI"]
        )
        {
            double radius = 0.55
            double3 xformOp:translate = (-55.9921, -40.6806, 0.0000)
            uniform token[] xformOpOrder = ["xformOp:translate"]
            uniform bool primvars:doNotCastShadows = 1
            rel material:binding = </World/Constellation/Looks/SatMat_03>
        }
        def Sphere "Sat_025" (
            prepend apiSchemas = ["MaterialBindingAPI"]
        )
        {
            double radius = 0.55
            double3 xformOp:translate = (-22.2808, -52.5928, 39.0843)
            uniform token[] xformOpOrder = ["xformOp:translate"]
            uniform bool primvars:doNotCastShadows = 1
            rel material:binding = </World/Constellation/Looks/SatMat_03>
        }
        def Sphere "Sat_026" (
            prepend apiSchemas = ["MaterialBindingAPI"]
        )
        {
            double radius = 0.55
            double3 xformOp:translate = (24.4822, -33.6969, 55.2736)
            uniform token[] xformOpOrder = ["xformOp:translate"]
            uniform bool primvars:doNotCastShadows = 1
            rel material:binding = </World/Constellation/Looks/SatMat_03>
        }
        def Sphere "Sat_027" (
            prepend apiSchemas = ["MaterialBindingAPI"]
        )
        {
            double radius = 0.55
            double3 xformOp:translate = (56.9039, 4.9383, 39.0843)
            uniform token[] xformOpOrder = ["xformOp:translate"]
            uniform bool primvars:doNotCastShadows = 1
            rel material:binding = </World/Constellation/Looks/SatMat_03>
        }
        def Sphere "Sat_028" (
            prepend apiSchemas = ["MaterialBindingAPI"]
        )
        {
            double radius = 0.55
            double3 xformOp:translate = (55.9921, 40.6806, 0.0000)
            uniform token[] xformOpOrder = ["xformOp:translate"]
            uniform bool primvars:doNotCastShadows = 1
            rel material:binding = </World/Constellation/Looks/SatMat_03>
        }
        def Sphere "Sat_029" (
            prepend apiSchemas = ["MaterialBindingAPI"]
        )
        {
            double radius = 0.55
            double3 xformOp:translate = (22.2808, 52.5928, -39.0843)
            uniform token[] xformOpOrder = ["xformOp:translate"]
            uniform bool primvars:doNotCastShadows = 1
            rel material:binding = </World/Constellation/Looks/SatMat_03>
        }
        def Sphere "Sat_030" (
            prepend apiSchemas = ["MaterialBindingAPI"]
        )
        {
            double radius = 0.55
            double3 xformOp:translate = (-24.4822, 33.6969, -55.2736)
            uniform token[] xformOpOrder = ["xformOp:translate"]
            uniform bool primvars:doNotCastShadows = 1
            rel material:binding = </World/Constellation/Looks/SatMat_03>
        }
        def Sphere "Sat_031" (
            prepend apiSchemas = ["MaterialBindingAPI"]
        )
        {
            double radius = 0.55
            double3 xformOp:translate = (-56.9039, -4.9383, -39.0843)
            uniform token[] xformOpOrder = ["xformOp:translate"]
            uniform bool primvars:doNotCastShadows = 1
            rel material:binding = </World/Constellation/Looks/SatMat_03>
        }
        def Sphere "Sat_032" (
            prepend apiSchemas = ["MaterialBindingAPI"]
        )
        {
            double radius = 0.55
            double3 xformOp:translate = (21.3871, -65.8226, 0.0000)
            uniform token[] xformOpOrder = ["xformOp:translate"]
            uniform bool primvars:doNotCastShadows = 1
            rel material:binding = </World/Constellation/Looks/SatMat_04>
        }
        def Sphere "Sat_033" (
            prepend apiSchemas = ["MaterialBindingAPI"]
        )
        {
            double radius = 0.55
            double3 xformOp:translate = (43.1336, -37.4424, 39.0843)
            uniform token[] xformOpOrder = ["xformOp:translate"]
            uniform bool primvars:doNotCastShadows = 1
            rel material:binding = </World/Constellation/Looks/SatMat_04>
        }
        def Sphere "Sat_034" (
            prepend apiSchemas = ["MaterialBindingAPI"]
        )
        {
            double radius = 0.55
            double3 xformOp:translate = (39.6130, 12.8711, 55.2736)
            uniform token[] xformOpOrder = ["xformOp:translate"]
            uniform bool primvars:doNotCastShadows = 1
            rel material:binding = </World/Constellation/Looks/SatMat_04>
        }
        def Sphere "Sat_035" (
            prepend apiSchemas = ["MaterialBindingAPI"]
        )
        {
            double radius = 0.55
            double3 xformOp:translate = (12.8877, 55.6448, 39.0843)
            uniform token[] xformOpOrder = ["xformOp:translate"]
            uniform bool primvars:doNotCastShadows = 1
            rel material:binding = </World/Constellation/Looks/SatMat_04>
        }
        def Sphere "Sat_036" (
            prepend apiSchemas = ["MaterialBindingAPI"]
        )
        {
            double radius = 0.55
            double3 xformOp:translate = (-21.3871, 65.8226, 0.0000)
            uniform token[] xformOpOrder = ["xformOp:translate"]
            uniform bool primvars:doNotCastShadows = 1
            rel material:binding = </World/Constellation/Looks/SatMat_04>
        }
        def Sphere "Sat_037" (
            prepend apiSchemas = ["MaterialBindingAPI"]
        )
        {
            double radius = 0.55
            double3 xformOp:translate = (-43.1336, 37.4424, -39.0843)
            uniform token[] xformOpOrder = ["xformOp:translate"]
            uniform bool primvars:doNotCastShadows = 1
            rel material:binding = </World/Constellation/Looks/SatMat_04>
        }
        def Sphere "Sat_038" (
            prepend apiSchemas = ["MaterialBindingAPI"]
        )
        {
            double radius = 0.55
            double3 xformOp:translate = (-39.6130, -12.8711, -55.2736)
            uniform token[] xformOpOrder = ["xformOp:translate"]
            uniform bool primvars:doNotCastShadows = 1
            rel material:binding = </World/Constellation/Looks/SatMat_04>
        }
        def Sphere "Sat_039" (
            prepend apiSchemas = ["MaterialBindingAPI"]
        )
        {
            double radius = 0.55
            double3 xformOp:translate = (-12.8877, -55.6448, -39.0843)
            uniform token[] xformOpOrder = ["xformOp:translate"]
            uniform bool primvars:doNotCastShadows = 1
            rel material:binding = </World/Constellation/Looks/SatMat_04>
        }
        def Sphere "Sat_040" (
            prepend apiSchemas = ["MaterialBindingAPI"]
        )
        {
            double radius = 0.55
            double3 xformOp:translate = (69.2100, -0.0000, 0.0000)
            uniform token[] xformOpOrder = ["xformOp:translate"]
            uniform bool primvars:doNotCastShadows = 1
            rel material:binding = </World/Constellation/Looks/SatMat_05>
        }
        def Sphere "Sat_041" (
            prepend apiSchemas = ["MaterialBindingAPI"]
        )
        {
            double radius = 0.55
            double3 xformOp:translate = (48.9389, 29.4521, 39.0843)
            uniform token[] xformOpOrder = ["xformOp:translate"]
            uniform bool primvars:doNotCastShadows = 1
            rel material:binding = </World/Constellation/Looks/SatMat_05>
        }
        def Sphere "Sat_042" (
            prepend apiSchemas = ["MaterialBindingAPI"]
        )
        {
            double radius = 0.55
            double3 xformOp:translate = (0.0000, 41.6516, 55.2736)
            uniform token[] xformOpOrder = ["xformOp:translate"]
            uniform bool primvars:doNotCastShadows = 1
            rel material:binding = </World/Constellation/Looks/SatMat_05>
        }
        def Sphere "Sat_043" (
            prepend apiSchemas = ["MaterialBindingAPI"]
        )
        {
            double radius = 0.55
            double3 xformOp:translate = (-48.9389, 29.4521, 39.0843)
            uniform token[] xformOpOrder = ["xformOp:translate"]
            uniform bool primvars:doNotCastShadows = 1
            rel material:binding = </World/Constellation/Looks/SatMat_05>
        }
        def Sphere "Sat_044" (
            prepend apiSchemas = ["MaterialBindingAPI"]
        )
        {
            double radius = 0.55
            double3 xformOp:translate = (-69.2100, 0.0000, 0.0000)
            uniform token[] xformOpOrder = ["xformOp:translate"]
            uniform bool primvars:doNotCastShadows = 1
            rel material:binding = </World/Constellation/Looks/SatMat_05>
        }
        def Sphere "Sat_045" (
            prepend apiSchemas = ["MaterialBindingAPI"]
        )
        {
            double radius = 0.55
            double3 xformOp:translate = (-48.9389, -29.4521, -39.0843)
            uniform token[] xformOpOrder = ["xformOp:translate"]
            uniform bool primvars:doNotCastShadows = 1
            rel material:binding = </World/Constellation/Looks/SatMat_05>
        }
        def Sphere "Sat_046" (
            prepend apiSchemas = ["MaterialBindingAPI"]
        )
        {
            double radius = 0.55
            double3 xformOp:translate = (-0.0000, -41.6516, -55.2736)
            uniform token[] xformOpOrder = ["xformOp:translate"]
            uniform bool primvars:doNotCastShadows = 1
            rel material:binding = </World/Constellation/Looks/SatMat_05>
        }
        def Sphere "Sat_047" (
            prepend apiSchemas = ["MaterialBindingAPI"]
        )
        {
            double radius = 0.55
            double3 xformOp:translate = (48.9389, -29.4521, -39.0843)
            uniform token[] xformOpOrder = ["xformOp:translate"]
            uniform bool primvars:doNotCastShadows = 1
            rel material:binding = </World/Constellation/Looks/SatMat_05>
        }
    }
}
