#usda 1.0
(
    defaultPrim = "World"
    upAxis = "Z"
    metersPerUnit = 1.0
    doc = "天数天算 mission hero stage — black space + stars + dramatic lighting + the two task sats. No Earth / no orbit rings; the space.demo.scene extension drives the packet, beams, and follow-cam. Generated by tools/gen_mission_stage.py."
    customLayerData = {
        dictionary cameraSettings = {
            string boundCamera = "/World/Cameras/MissionHero"
        }
    }
)

def Xform "World"
{
    def Xform "Environment"
    {
        # Warm key from upper front-right.
        def DistantLight "Key"
        {
            float inputs:angle = 1.0
            float inputs:intensity = 4200
            color3f inputs:color = (1.0, 0.95, 0.88)
            float3 xformOp:rotateXYZ = (-40, 0, 35)
            uniform token[] xformOpOrder = ["xformOp:rotateXYZ"]
        }
        # Cool rim from behind to edge-light the sats against black.
        def DistantLight "Rim"
        {
            float inputs:angle = 0.6
            float inputs:intensity = 3600
            color3f inputs:color = (0.45, 0.62, 1.0)
            float3 xformOp:rotateXYZ = (25, 0, -150)
            uniform token[] xformOpOrder = ["xformOp:rotateXYZ"]
        }
        # Near-black deep-space ambient so shadows aren't pure void.
        def DomeLight "Space"
        {
            color3f inputs:color = (0.02, 0.03, 0.06)
            float inputs:intensity = 14.0
            token inputs:texture:format = "latlong"
        }
    }

    def Scope "Looks"
    {
        def Material "StarMat"
        {
            token outputs:surface.connect = </World/Looks/StarMat/Shader.outputs:surface>
            def Shader "Shader"
            {
                uniform token info:id = "UsdPreviewSurface"
                color3f inputs:diffuseColor = (0, 0, 0)
                color3f inputs:emissiveColor = (1.4, 1.45, 1.6)
                float inputs:roughness = 1.0
                token outputs:surface
            }
        }
        def Material "PacketMat"
        {
            token outputs:surface.connect = </World/Looks/PacketMat/Shader.outputs:surface>
            def Shader "Shader"
            {
                uniform token info:id = "UsdPreviewSurface"
                color3f inputs:diffuseColor = (0, 0, 0)
                color3f inputs:emissiveColor = (0.30, 2.20, 2.80)
                float inputs:roughness = 1.0
                token outputs:surface
            }
        }
        def Material "ISLMat"
        {
            token outputs:surface.connect = </World/Looks/ISLMat/Shader.outputs:surface>
            def Shader "Shader"
            {
                uniform token info:id = "UsdPreviewSurface"
                color3f inputs:diffuseColor = (0, 0, 0)
                color3f inputs:emissiveColor = (0.20, 1.60, 2.60)
                float inputs:roughness = 1.0
                token outputs:surface
            }
        }
        def Material "ResultMat"
        {
            token outputs:surface.connect = </World/Looks/ResultMat/Shader.outputs:surface>
            def Shader "Shader"
            {
                uniform token info:id = "UsdPreviewSurface"
                color3f inputs:diffuseColor = (0, 0, 0)
                color3f inputs:emissiveColor = (0.40, 2.20, 0.80)
                float inputs:roughness = 1.0
                token outputs:surface
            }
        }
    }

    def Points "Stars" (
        prepend apiSchemas = ["MaterialBindingAPI"]
    )
    {
        point3f[] points = [(-256.00, -352.88, 244.83), (245.88, 291.65, -323.24), (245.28, -430.34, -68.16), (169.89, 36.28, -468.85), (-227.35, 293.16, -335.21), (-418.65, 249.50, 111.74), (495.75, 64.59, -7.47), (-430.65, -51.22, 248.83), (-315.02, 388.28, 1.25), (-194.22, -137.53, 439.73), (132.62, 402.51, 265.32), (242.18, 143.68, -413.16), (122.03, 327.64, -357.43), (290.86, 362.49, -184.40), (186.18, 439.63, -148.55), (-73.04, -366.90, -331.74), (201.12, -410.13, 203.34), (71.62, -253.32, -425.09), (-473.09, -150.49, -59.51), (224.86, -300.85, 330.04), (139.22, -225.80, -423.83), (-52.69, 434.26, -242.15), (-309.12, 224.61, -322.48), (228.02, -175.14, 409.06), (-356.66, 246.91, -248.66), (-203.50, -304.83, -340.10), (-348.22, 289.87, 211.46), (-228.77, 279.71, -345.58), (275.91, 408.20, -85.14), (-399.45, 41.87, -297.81), (216.58, 151.85, -424.31), (431.12, -249.62, 42.78), (432.11, -60.83, 244.10), (273.04, -114.81, -402.83), (-99.75, 229.30, 432.98), (-487.57, -77.08, -79.60), (427.57, -133.60, -222.12), (-36.82, -440.06, 234.50), (-10.68, -168.45, -470.65), (102.09, -90.73, -480.98), (380.26, 122.27, -300.76), (109.24, -473.58, -117.42), (-81.05, -34.94, -492.15), (-213.86, -167.81, 419.65), (458.23, -180.50, 86.29), (-96.80, -146.69, 468.09), (-107.82, 88.66, -480.12), (49.54, 66.56, 493.07), (350.09, -187.36, -303.87), (265.36, -417.12, -74.78), (474.76, 131.63, 85.32), (68.39, 173.68, 463.85), (-438.57, -55.96, -233.50), (-222.22, 342.25, 288.94), (432.59, 237.81, 79.48), (198.20, 242.15, -389.98), (215.08, -14.48, -451.14), (393.34, 206.35, -229.57), (145.55, 109.88, 465.56), (-192.69, -134.81, -441.24), (133.95, 341.99, -339.26), (140.92, 7.07, -479.68), (-97.78, 321.84, -369.94), (476.47, -4.30, 151.53), (63.10, -314.59, -383.47), (57.52, 408.58, 282.40), (-70.67, 212.23, 447.17), (-21.77, 45.38, -497.46), (123.78, -417.30, -246.04), (445.24, -139.37, -179.81), (-71.38, 247.54, -428.52), (-13.10, 498.86, -31.07), (-55.83, -354.45, 348.20), (450.86, 85.17, -198.68), (-181.62, 11.10, 465.71), (-365.52, -339.30, -35.59), (-331.10, 112.02, -357.52), (144.58, 257.78, 403.29), (333.13, 152.47, 340.26), (-119.67, -353.55, 332.69), (-328.06, -249.79, -282.82), (303.12, -383.77, 104.10), (232.98, 165.37, -410.34), (180.27, 452.13, 114.37), (-392.88, 303.20, -60.96), (-410.63, -283.77, -29.27), (385.45, -221.35, -228.98), (227.02, -445.21, 15.83), (-281.14, 413.43, 5.75), (-223.73, -245.19, 373.94), (-12.50, -481.57, 133.93), (-320.17, 90.11, 373.32), (-462.72, -146.99, 119.51), (-463.67, -82.07, -168.16), (483.52, -122.98, 32.87), (388.95, 153.48, 274.16), (-406.43, 249.93, -149.50), (199.19, 419.67, 184.94), (-133.45, -21.55, 481.38), (375.38, -286.62, -164.12), (-469.56, -156.42, 71.05), (381.79, -220.45, 235.88), (431.18, -171.18, 186.51), (-458.89, 173.37, -96.77), (-56.11, 493.96, -53.40), (317.20, -238.76, -303.93), (-407.78, -283.82, -56.21), (-181.19, -202.65, -419.65), (-67.72, 410.26, -277.67), (7.69, -218.68, 449.58), (-256.41, 42.79, -427.11), (-22.15, 287.16, 408.71), (-87.13, 492.23, -11.05), (-249.15, 95.90, 422.76), (339.84, 14.55, -366.47), (-338.95, 276.07, -242.69), (-379.10, 243.36, -216.93), (106.32, 273.11, -405.10), (329.79, 363.60, 95.03), (-54.69, -386.63, -312.30), (23.15, -397.09, -302.96), (-348.53, -355.17, 48.79), (270.80, 417.74, 46.47), (346.39, 118.47, -340.56), (343.62, -362.80, -17.40), (390.64, -8.44, -311.98), (247.71, 138.27, 411.73), (-215.96, 340.62, -295.53), (-98.58, 481.99, -89.29), (253.61, 125.46, -412.24), (-235.13, 177.37, 404.05), (377.42, -227.54, -236.19), (191.05, 53.83, -458.91), (-123.03, -173.57, -452.48), (96.36, -189.05, -452.74), (-142.72, -442.59, 183.70), (227.18, -330.60, -298.48), (381.38, 281.11, 159.77), (-98.43, -337.64, 355.41), (-232.85, 271.62, -349.29), (285.61, -388.23, -133.06), (-411.10, -277.82, 61.72), (155.57, 380.16, -285.09), (249.31, -375.79, -215.93), (158.50, -382.48, -280.33), (273.05, 52.54, 415.55), (357.40, -348.57, 27.59), (-398.75, -293.78, -68.53), (-447.96, -220.97, 22.43), (290.96, 385.33, -129.87), (-465.95, -139.82, -115.50), (151.29, -469.31, 82.84), (433.52, -136.52, -208.38), (-390.25, 44.24, 309.43), (112.59, 418.16, -249.92), (-269.96, -420.45, -18.48), (-6.99, 8.69, 499.88), (243.31, -429.74, 78.26), (-45.76, -385.80, -314.75), (338.14, 54.18, 364.31), (435.24, -216.32, 117.34), (-278.20, -382.15, -162.99), (349.42, 251.22, -254.55), (-43.57, -186.78, 461.75), (246.82, -94.88, 424.36), (-75.61, -405.25, 282.94), (-277.02, 373.49, -183.76), (177.11, -460.51, 81.00), (212.84, -414.01, -182.47), (-188.26, -84.10, 455.50), (-186.80, 148.98, -439.22), (80.18, -101.89, -482.90), (480.63, 30.70, -134.35), (307.50, -230.13, 320.13), (464.98, -16.14, -183.13), (-440.67, -41.24, -232.61), (164.80, -24.66, -471.42), (241.80, 424.89, -104.88), (-470.52, 99.68, -136.66), (177.25, -463.84, 58.61), (-442.08, -187.37, -139.50), (371.10, -195.19, -272.37), (-261.72, -250.34, -344.72), (-385.83, 258.52, 185.21), (257.78, -102.16, -416.07), (-468.01, -151.05, 90.29), (15.85, -78.56, 493.54), (209.44, 69.98, -448.60), (-498.50, 30.49, -23.79), (-422.38, -264.39, -41.20), (263.36, -361.53, 223.47), (64.28, -397.91, -295.87), (224.61, -44.65, -444.47), (229.98, -409.20, -172.23), (-436.16, 243.93, -16.33), (-415.40, 178.67, -213.36), (348.58, 312.49, 175.62), (-239.03, -92.99, 429.21), (-272.13, 98.14, 407.82), (184.01, 286.35, 366.26), (454.64, -57.16, 200.08), (-329.12, -373.09, -49.80), (18.69, 498.86, 28.09), (-474.74, -88.75, -129.42), (388.99, 212.76, 231.13), (-298.58, 161.02, 367.32), (20.65, 215.59, -450.66), (-122.00, -57.69, -481.44), (-401.73, -81.75, -286.23), (45.67, -339.98, 363.77), (-16.09, 495.92, -61.64), (84.36, 116.01, 478.98), (-56.22, 472.78, -152.70), (345.84, -360.92, 11.36), (371.68, -168.84, 288.69), (249.26, 97.77, 422.27), (162.19, 445.91, 157.68), (-471.72, -142.32, 85.00), (-445.35, 179.41, 139.56), (188.08, 446.35, -124.11), (491.35, 89.11, -25.25), (-117.78, -33.81, 484.75), (231.22, 396.83, -197.64), (-0.68, 476.13, -152.64), (-325.99, 362.59, 110.71), (-494.62, -71.07, -17.24), (-262.17, 307.91, -294.03), (-262.86, 252.95, -341.94), (330.46, -365.05, -86.79), (284.43, -403.35, -80.06), (133.07, -132.80, -463.31), (189.32, 248.33, -390.50), (148.89, -471.07, 76.99), (207.41, -336.64, 306.03), (-132.94, -96.64, -472.22), (58.17, 137.61, -477.16), (-135.23, -450.74, 168.96), (-21.19, -390.26, 311.85), (-317.15, -359.88, -141.07), (491.28, -82.32, 43.17), (425.07, -75.24, 252.30), (-433.68, -231.73, 90.70), (294.08, -113.32, 388.17), (398.91, -139.72, -267.12), (122.82, -244.14, -418.70), (-242.91, 436.71, 16.70), (-484.43, -57.51, 109.66), (100.70, 479.94, 97.54), (3.85, 391.43, -311.07), (111.30, -465.10, 145.92), (11.50, -383.58, 320.52), (-457.85, -46.57, -195.45), (-348.20, 291.10, 209.82), (337.49, -309.54, 200.71), (482.77, 125.47, -34.54), (424.91, -199.69, -171.97), (-489.37, 101.88, 11.76), (-245.47, 185.98, -393.90), (404.82, 265.27, -125.49), (-207.68, 69.78, 449.44), (269.69, 398.99, -134.45), (-123.63, -481.86, 50.23), (72.27, 182.17, 459.99), (199.65, -206.07, 409.48), (470.55, 15.79, 168.32), (251.54, 380.25, -205.29), (388.46, 144.32, 279.77), (-300.99, 111.41, 383.40), (-319.07, -384.85, -9.43), (158.88, 264.58, -393.39), (154.76, -393.90, -266.26), (-426.88, 17.59, -259.73), (206.09, 306.74, -336.81), (162.04, 129.35, -454.99), (-154.79, -463.72, -104.92), (286.31, -313.02, 264.67), (-24.80, -348.62, 357.56), (-40.63, 388.47, 312.15), (149.51, -246.43, -408.56), (198.93, 392.37, -237.64), (21.77, 100.56, 489.30), (176.34, -431.01, 182.04), (-158.35, -363.30, 304.85), (254.15, 430.19, 18.51), (-406.96, -257.78, 133.92), (334.94, 295.28, 224.99), (59.17, 495.60, 29.60), (-79.28, 435.16, 233.14), (302.42, -289.95, -272.90), (377.83, 127.17, -301.78), (340.19, -322.01, -174.87), (62.50, -121.42, -480.99), (-311.89, 369.16, -128.25), (-58.82, -298.08, 397.10), (-327.32, 350.86, 140.57), (-487.54, -110.41, -10.56), (-156.21, 6.75, -474.92), (189.33, 450.39, -106.33), (-354.89, -294.39, 193.37), (106.96, 386.33, 298.85), (-449.50, 107.09, 191.00), (-87.58, 148.48, 469.34), (-207.56, -368.94, 266.09), (-51.87, 470.82, 160.12), (-398.18, 96.06, 286.75), (397.43, -302.73, 20.20), (335.04, -358.38, -96.47), (13.38, 355.39, -351.45), (483.40, -104.32, -73.78), (-438.28, 119.30, 208.99), (-147.62, 48.08, -475.28), (-445.27, -50.10, -221.86), (-474.61, 46.67, 150.24), (420.34, -211.21, 169.41), (-344.59, -48.20, -359.07), (129.77, -437.38, 204.59), (192.79, -441.15, -134.99), (299.86, 238.09, 321.55), (227.87, -407.95, -177.92), (403.72, 257.41, 144.06), (331.46, 86.24, 364.28), (334.48, -349.39, 126.71), (40.65, 253.93, -428.80), (-445.40, 224.85, 32.62), (-379.49, 84.48, -314.40), (-59.72, -64.29, 492.24), (-423.88, -177.60, 196.93), (310.21, 269.12, -285.21), (-277.55, -358.93, 210.08), (-224.40, -373.89, -244.64), (-316.24, 284.24, -263.06), (-72.09, 464.21, 171.20), (-3.68, -415.66, -277.88), (239.93, -429.86, 87.49), (-356.47, -197.75, -289.52), (-488.84, -96.71, -40.97), (-210.74, 398.75, 215.84), (453.84, -178.49, -110.30), (39.93, -497.62, -27.88), (-460.48, -67.26, 182.86), (182.04, 247.60, -394.41), (-238.99, -431.65, -81.01), (453.75, 61.72, 200.75), (413.50, 208.63, 188.39), (473.89, -123.86, -100.44), (284.61, 387.82, 136.35), (-396.39, -208.76, -222.02), (39.42, 187.07, 462.01), (386.07, 148.67, -280.80), (355.72, -350.96, 17.19), (119.41, -380.46, -301.66), (377.53, 15.47, 327.46), (442.64, 28.70, -230.75), (225.94, 342.57, 285.66), (87.62, -211.63, -444.45), (-290.58, 281.18, 294.11), (86.88, -141.41, -471.65), (348.67, -358.18, -11.67), (139.30, 160.76, 452.50), (-117.64, 301.87, 380.84), (-320.43, 349.01, -159.74), (298.33, 388.25, 101.31), (415.46, -9.79, -278.03), (-257.89, 299.66, 306.10), (-135.49, -481.13, -12.67), (-479.18, -17.71, 141.69), (-494.43, 63.02, -39.55), (-201.58, 387.55, 243.25), (-194.86, 396.56, 234.02), (-102.00, -423.71, 245.08), (-423.29, -47.26, 261.90), (216.11, 418.39, 168.08), (-151.29, -321.64, -351.66), (2.15, -108.48, -488.09), (-319.93, 30.55, 383.03), (-113.59, 339.80, 348.76), (-443.36, 22.94, -230.01), (-252.02, -172.46, 395.91), (57.57, 168.41, -467.25), (-462.98, -181.70, 51.35), (-216.17, -19.06, -450.45), (-330.57, 82.24, 366.01), (270.32, -206.98, -366.18), (316.68, -386.50, -18.22), (189.71, -334.04, 320.04), (-368.46, 8.26, -337.89), (494.41, -67.18, -32.35), (460.28, -174.18, 88.37), (327.26, -345.75, 152.83), (230.60, 114.47, -428.63), (-162.65, -438.35, -177.18), (-368.56, -149.27, -303.11), (387.51, 309.57, -63.29), (-490.20, 90.87, -38.06), (-355.81, 350.64, -21.19), (-115.25, -174.46, 454.18), (-153.78, -114.11, -461.88), (466.84, -124.74, -128.46), (480.64, -6.21, -137.66), (-344.22, -341.91, -120.86), (-345.00, 65.72, 355.89), (105.10, 54.15, -485.82), (118.42, 475.72, 98.32), (23.28, -496.39, -55.23), (23.85, -363.99, 341.97), (-54.36, -55.73, -493.90), (58.43, 416.12, 270.98), (-249.71, 88.88, 423.97), (365.67, 146.40, 307.98), (-163.46, 220.52, -417.92), (286.82, 165.51, -374.62), (420.85, -216.83, 160.84), (25.65, -499.09, 15.81), (276.27, 157.69, -385.75), (-283.21, -349.09, -218.93), (-282.83, 33.42, -410.96), (335.48, 265.32, -258.95), (-14.96, -452.72, -211.71), (423.22, 153.66, 217.43), (-302.73, -143.27, -371.25), (-421.97, -202.06, -176.39), (247.91, -290.14, -323.05), (-59.21, 496.48, -1.14), (355.93, 240.37, -256.00), (75.06, -374.62, 322.53), (-267.89, -212.90, -364.57), (-69.88, -492.43, 51.23), (-397.66, -47.16, 299.41), (-184.62, 447.71, 124.38), (447.94, 30.13, 220.10), (158.41, -473.65, 23.78), (-448.32, -97.43, -198.79), (393.57, -84.34, -296.62), (-124.65, 346.66, -338.07), (-441.46, 231.51, 38.97), (306.48, -17.22, 394.68), (162.79, 415.63, -225.29), (-196.26, -146.66, 435.86), (253.53, 396.55, 168.74), (-48.14, 250.85, 429.83), (-325.91, 367.10, 94.96), (-212.27, 71.72, 446.99), (-283.74, -305.03, 276.49), (131.13, 298.75, -378.89), (-282.30, -24.56, -411.95), (311.64, 387.05, 55.42), (-148.19, -468.95, -90.14), (478.63, -139.86, -36.82), (107.82, 485.88, 47.88), (331.69, 59.28, -369.41), (307.87, 244.67, 308.79), (76.49, 493.89, -14.85), (33.32, 466.89, -175.79), (-91.62, 131.69, 473.56), (394.00, -202.89, -231.53), (277.80, -398.23, 119.33), (335.11, -97.07, -358.16), (421.06, -88.60, 254.68), (414.05, 32.88, -278.36), (470.36, 67.95, 155.39), (372.53, -78.24, 324.20), (-161.34, -471.33, 42.61), (-452.52, 192.92, -89.47), (-282.31, 186.03, 368.37), (-248.19, 172.94, 398.11), (-261.58, 25.47, 425.35), (270.45, 357.13, 222.07), (235.74, -345.90, -273.46), (-134.88, -481.35, -10.50), (447.90, 146.87, -166.77), (238.63, -388.87, -204.54), (-318.36, -349.60, 162.55), (-72.22, -255.68, -423.57), (-274.08, 225.93, -351.91), (0.74, -492.35, 87.15), (453.83, 201.05, -60.18), (53.51, -262.80, -421.99), (458.33, -192.14, 54.87), (-394.85, -137.83, -274.04), (-245.06, -198.55, 387.97), (-128.73, -449.97, 175.93), (-392.90, -261.90, -164.43), (179.00, 14.56, -466.63), (310.59, -353.67, 168.68), (307.99, 393.88, 2.53), (468.99, -119.96, -125.15), (365.99, -339.70, 25.65), (70.64, 16.09, -494.72), (-147.39, 470.42, 83.53), (107.97, -196.71, -446.82), (-295.35, -100.73, 390.66), (-294.19, 272.64, -298.53), (405.34, -265.38, 123.60), (440.80, 227.10, -64.22), (8.54, -395.45, -305.86), (-363.29, 272.52, 209.17), (74.50, -441.02, -223.49), (164.96, 459.81, 106.58), (-111.69, 237.40, -425.64), (-44.86, 451.47, 210.14), (-114.03, -217.27, 435.65), (443.59, 200.07, 114.91), (-40.79, 383.49, -318.23), (402.17, 294.14, -41.78), (400.36, -206.93, 216.54), (-129.88, -103.48, 471.62), (-332.30, -354.02, 119.36), (414.59, -263.90, 92.06), (-265.63, -393.78, 156.14), (66.99, -381.60, -316.06), (-212.07, 58.26, 449.04), (453.77, -186.71, -96.09), (220.18, -318.09, -316.76), (-157.49, 181.40, -438.51), (40.78, -213.52, -450.27), (476.78, 123.55, -86.12), (374.82, 267.59, -194.70), (-490.34, -35.81, 91.00), (196.16, 72.22, -454.21), (33.92, -497.30, -39.28), (-113.82, 194.84, -446.18), (187.83, 435.28, 158.90), (-22.29, 189.85, 462.02), (-415.42, 31.59, 276.46), (228.25, -231.51, 379.88), (208.32, 400.65, -214.66), (-467.72, -2.17, 176.72), (477.39, -32.03, -145.16), (143.96, 460.41, -131.52), (171.76, -469.55, 4.29), (-173.45, -467.20, -40.49), (-363.10, 122.36, -321.23), (491.33, -24.68, -89.35), (484.87, -103.70, 64.44), (415.56, 91.41, 262.58), (-196.98, -340.92, 308.17), (448.21, -113.97, 190.06), (-311.71, 383.82, 74.29), (64.29, 216.28, 446.20), (-150.17, 333.84, 340.59), (-131.01, -479.10, -57.44), (-346.92, 314.67, -175.01), (-439.25, 167.35, 170.46), (-179.91, 464.92, -38.55), (-227.61, -443.42, -39.61), (-379.96, -157.91, 284.07), (-481.33, -134.00, -19.11), (-405.62, 260.93, 131.88), (-195.21, 178.41, -424.34), (442.48, 46.39, 228.17), (-29.47, 424.38, 262.75), (-317.54, 129.51, -363.87), (-271.38, -419.25, -24.16), (233.48, -251.19, 363.86), (201.03, 452.46, 69.79), (-248.80, -318.82, -294.03), (-131.08, -253.73, -410.42), (-437.03, 237.79, 49.60), (-116.81, -414.54, -254.00), (153.44, 91.62, -466.97), (364.89, -308.73, -146.77), (192.20, 300.13, 350.68), (-198.76, -429.05, 162.50), (247.57, -339.93, -270.48), (413.32, -230.44, 161.43), (448.25, -207.67, 77.12), (313.17, 254.50, 295.21), (-350.76, 97.27, 342.79), (421.87, -16.01, -267.90), (-480.96, 71.78, 116.30), (228.07, -276.90, 348.29), (323.98, 359.00, -127.09), (-28.60, 483.83, -122.83), (-113.40, -383.36, -300.30), (-260.98, -415.47, -96.33), (317.82, 268.93, -276.89), (-176.42, -150.98, -442.81), (125.79, 80.83, -477.12), (478.23, -56.47, 134.56), (463.08, -175.25, 69.64), (407.40, -269.36, -107.09), (-232.32, -321.47, 304.44), (-209.47, 100.71, -442.69), (-432.03, 193.99, -160.36), (43.04, 452.36, -208.60), (358.05, 235.27, 257.77), (62.18, -8.11, -496.05), (-312.22, -92.70, 379.37), (-455.38, 68.52, 194.76), (-128.51, 243.49, 417.37), (331.88, -309.78, -209.50), (286.34, 339.06, -230.33), (-358.73, 343.86, -55.41), (350.24, -142.02, -327.35), (-268.73, 316.85, 278.19), (-237.60, 271.17, -346.43), (-256.29, 118.87, -412.53), (491.71, 43.52, 79.54), (-80.77, 177.66, 460.34), (-338.91, 297.34, 216.17), (-381.37, 309.59, -93.35), (277.40, -415.91, 8.20), (22.40, 339.42, -366.46), (-120.68, 479.32, -75.41), (-92.34, 16.44, 491.13), (431.11, 204.71, 149.13), (-362.53, 46.08, -341.25), (151.34, -68.05, -471.66), (33.01, 353.96, -351.60), (-50.64, 384.92, -315.07), (299.11, -344.85, -204.00), (-329.32, 203.15, 316.67), (148.27, -352.83, 321.75), (291.70, -202.64, -351.92), (343.19, 203.24, 301.51), (462.65, 90.07, -166.86), (11.17, -380.59, -324.08), (-277.04, -112.36, 400.78), (397.30, 51.32, -299.20), (-41.61, -87.63, -490.50), (430.12, -195.00, 164.23), (-432.41, -165.70, -188.59), (101.19, 280.11, -401.62), (203.88, -53.20, 453.43), (92.98, -57.86, 487.86), (239.95, 135.94, 417.07), (420.87, -110.66, -246.22), (-71.56, -476.58, 133.21), (195.33, 338.55, -311.82), (-201.30, -100.28, -446.57), (-293.91, 249.48, -318.40), (105.35, -12.81, 488.61), (-212.44, 379.71, 246.36), (-455.39, -21.69, -205.30), (-425.34, 72.21, 252.73), (463.02, -186.39, -29.47), (324.18, -379.81, 25.53), (-472.15, 154.21, -57.35), (-354.88, 156.37, 315.61), (-88.04, -482.77, 95.82), (-308.10, -147.28, -365.22), (223.35, -236.02, 380.01), (174.99, 463.62, -66.61), (120.63, -237.22, 423.29), (173.78, 312.73, -349.28), (261.78, -88.15, -416.77), (163.92, -274.25, 384.60), (333.08, 52.39, -369.21), (200.90, -428.98, -160.05), (-445.54, -196.60, 113.33), (412.44, 241.31, -147.19), (-5.50, 499.36, -24.76), (-23.14, -347.48, 358.78), (-357.45, 332.52, 107.98), (-406.54, 47.82, -287.12), (328.86, 170.29, -335.93), (295.08, -398.26, 65.70), (48.94, -189.68, -460.03), (220.92, 441.41, 79.71), (405.55, 207.34, -206.24), (-367.23, -282.84, -187.46), (-204.26, 358.82, 282.01), (289.13, 222.21, 342.10), (-193.54, 348.79, -301.48), (172.77, -308.02, 353.95), (369.52, -229.98, 246.10), (-132.96, -476.91, 69.83), (-453.21, -180.69, -109.34), (92.82, -443.46, 211.49), (280.41, -97.78, -402.25), (174.53, -418.09, 211.53), (474.17, 16.11, 157.81), (-415.22, -262.98, -91.82), (-184.11, -460.08, 66.56), (-185.63, -317.56, 338.67), (250.59, 92.56, -422.66), (-401.52, 252.84, -157.64), (-477.37, 112.89, -96.80), (-225.91, 445.32, 25.58), (-44.24, 114.40, 484.72), (-284.90, 184.30, -367.24), (86.79, 137.39, -472.86), (430.97, -190.80, -166.92), (6.42, 61.95, 496.11), (-284.59, 366.20, -186.83), (62.36, 321.20, 378.08), (-455.92, 183.01, 92.96), (-6.84, 336.16, -370.07), (52.27, -64.74, -493.03), (206.75, 326.34, 317.42), (-428.13, -51.48, -253.09), (-268.26, -29.50, 420.91), (-463.60, -135.69, -129.09), (-15.62, -273.15, 418.50), (-154.73, 390.92, 270.63), (-75.03, -470.02, -153.13), (-422.04, 222.33, -149.83), (-57.52, -476.83, -139.01), (-227.73, 435.07, -94.08), (-201.17, -240.79, 389.30)]
        float[] widths = [1.99, 0.88, 0.67, 1.26, 1.18, 1.05, 1.83, 1.34, 2.27, 1.31, 1.8, 0.9, 1.41, 1.41, 1.96, 1.36, 2.11, 1.17, 2.04, 1.9, 0.78, 1.33, 1.91, 0.92, 2.31, 1.08, 1.24, 2.32, 1.98, 0.82, 0.84, 1.45, 1.04, 0.94, 1.63, 1.54, 2.28, 0.91, 1.7, 0.94, 2.14, 0.9, 1.52, 1.83, 1.65, 1.38, 2.18, 1.76, 2.14, 1.42, 1.59, 0.69, 2.08, 1.64, 1.52, 2.15, 1.15, 1.67, 1.56, 2.15, 1.67, 0.73, 2.01, 1.24, 1.78, 0.79, 1.29, 2.05, 0.87, 2.02, 1.14, 1.48, 0.68, 2.09, 1.14, 2.27, 2.01, 1.5, 1.13, 1.75, 0.74, 1.03, 1.0, 1.65, 1.71, 1.04, 1.17, 2.31, 1.83, 1.62, 1.95, 1.77, 1.68, 1.51, 2.3, 1.71, 1.8, 1.66, 1.36, 2.12, 2.14, 0.81, 2.09, 2.32, 0.82, 1.03, 1.93, 2.32, 1.44, 1.99, 2.09, 1.1, 2.15, 2.28, 2.38, 2.4, 0.98, 2.19, 1.23, 0.85, 1.02, 1.29, 1.16, 1.22, 1.41, 2.22, 1.68, 0.62, 2.34, 0.83, 1.88, 1.76, 2.28, 0.73, 0.66, 1.38, 2.27, 1.7, 2.31, 0.8, 1.0, 1.97, 0.79, 1.79, 2.04, 1.74, 0.85, 1.45, 1.68, 1.54, 2.23, 1.39, 1.85, 1.78, 1.45, 1.1, 1.94, 1.0, 2.01, 1.85, 1.63, 1.09, 2.39, 2.18, 1.05, 2.0, 1.8, 2.18, 2.38, 2.23, 0.84, 2.23, 1.73, 2.2, 2.3, 2.32, 2.23, 2.17, 1.11, 0.69, 1.98, 0.81, 1.47, 1.31, 1.25, 0.6, 1.43, 1.78, 1.95, 2.06, 1.96, 1.44, 1.83, 1.16, 1.94, 1.16, 0.69, 0.66, 1.96, 0.7, 2.38, 1.87, 0.73, 1.82, 2.29, 2.35, 2.21, 1.57, 0.91, 0.65, 2.3, 2.34, 2.33, 0.9, 1.76, 1.45, 1.68, 1.89, 1.3, 1.97, 1.92, 1.37, 1.61, 1.91, 1.53, 0.79, 0.83, 0.63, 1.97, 1.97, 2.08, 1.46, 1.37, 2.39, 0.7, 1.67, 1.57, 1.13, 0.78, 1.28, 1.05, 2.36, 1.85, 1.14, 1.13, 1.56, 1.41, 1.79, 2.13, 1.14, 1.04, 1.29, 0.63, 1.53, 1.35, 1.62, 1.68, 2.38, 1.9, 1.59, 0.8, 0.86, 2.1, 1.16, 2.09, 1.09, 1.01, 2.05, 1.23, 1.9, 1.62, 2.33, 1.15, 1.28, 1.13, 2.22, 2.03, 1.15, 1.64, 1.93, 1.14, 1.75, 1.13, 1.5, 1.58, 1.78, 1.69, 1.64, 2.18, 0.85, 1.88, 1.87, 1.42, 1.85, 0.93, 2.2, 0.78, 1.02, 1.73, 2.24, 1.93, 1.84, 1.31, 2.25, 0.88, 1.36, 1.29, 2.39, 0.85, 2.4, 0.83, 1.55, 1.23, 2.39, 2.26, 1.6, 2.07, 1.92, 2.36, 2.1, 1.48, 0.62, 2.24, 1.17, 1.36, 0.81, 0.64, 0.73, 1.02, 0.96, 1.71, 0.65, 0.83, 1.49, 2.26, 1.5, 2.38, 2.4, 1.4, 0.79, 1.03, 1.02, 1.18, 1.61, 0.78, 2.3, 0.67, 1.0, 2.0, 0.67, 1.76, 2.01, 1.24, 0.75, 1.44, 1.56, 0.75, 1.04, 1.04, 1.27, 1.97, 1.71, 0.71, 1.33, 1.62, 0.8, 0.98, 1.31, 2.36, 0.83, 1.11, 1.19, 2.38, 1.05, 2.06, 1.41, 2.07, 0.76, 1.93, 2.13, 1.35, 1.76, 1.57, 1.13, 1.09, 0.7, 1.62, 1.34, 0.76, 1.03, 0.78, 1.89, 1.81, 2.16, 1.0, 1.71, 2.22, 2.37, 1.36, 1.1, 1.72, 1.53, 1.3, 1.27, 2.09, 0.95, 1.72, 0.69, 1.06, 1.82, 2.13, 2.37, 0.65, 1.33, 1.81, 1.56, 1.36, 1.49, 1.58, 1.02, 2.24, 1.02, 2.34, 2.0, 1.61, 0.93, 1.64, 2.0, 2.22, 1.82, 2.35, 2.22, 1.79, 0.67, 0.68, 2.38, 2.39, 0.65, 1.77, 0.66, 2.3, 0.96, 1.51, 1.81, 2.39, 0.79, 1.47, 0.67, 1.59, 1.93, 2.18, 0.92, 2.3, 1.09, 0.65, 1.44, 2.18, 1.31, 2.19, 1.76, 0.69, 0.68, 2.04, 1.18, 1.36, 0.98, 1.43, 1.33, 2.13, 1.5, 1.89, 2.33, 1.29, 0.83, 1.28, 2.02, 1.72, 0.62, 0.98, 2.26, 1.42, 1.78, 1.23, 1.34, 0.91, 1.48, 2.23, 1.98, 0.7, 1.09, 2.15, 1.13, 2.27, 0.93, 0.64, 1.37, 1.76, 1.89, 0.63, 1.6, 0.94, 1.6, 1.83, 1.26, 1.49, 0.65, 0.96, 1.34, 1.77, 1.51, 1.37, 1.57, 1.52, 0.99, 2.34, 0.84, 1.98, 0.65, 1.21, 0.79, 1.99, 1.1, 1.68, 1.91, 1.05, 1.03, 1.31, 2.08, 1.89, 1.26, 0.74, 1.19, 1.73, 1.23, 1.4, 2.08, 1.24, 1.84, 1.18, 1.67, 1.72, 2.15, 2.14, 0.62, 2.0, 0.95, 1.4, 2.37, 0.78, 0.68, 1.3, 0.79, 1.96, 2.31, 1.11, 1.44, 1.76, 1.75, 1.1, 1.34, 0.61, 1.9, 1.45, 1.42, 1.13, 1.64, 1.98, 1.01, 1.01, 2.35, 0.66, 0.89, 1.18, 1.92, 2.06, 1.62, 1.04, 2.15, 2.22, 1.97, 1.1, 1.05, 1.01, 1.2, 1.61, 2.13, 0.8, 2.0, 0.73, 0.78, 1.83, 1.51, 2.24, 1.41, 0.81, 1.12, 0.9, 1.08, 0.71, 1.84, 1.93, 0.77, 1.33, 2.39, 1.9, 1.73, 2.24, 0.71, 1.15, 1.48, 0.75, 0.75, 1.25, 1.96, 0.88, 0.77, 2.04, 0.83, 1.29, 0.79, 1.05, 1.97, 1.16, 1.52, 1.4, 2.04, 2.15, 1.82, 2.24, 1.57, 1.47, 1.56, 2.1, 1.64, 2.26, 0.99, 1.03, 1.36, 1.36, 1.5, 2.38, 2.05, 1.2, 1.22, 1.32, 1.95, 1.54, 0.97, 1.61, 2.25, 0.88, 1.41, 2.05, 0.62, 0.91, 1.84, 2.26, 1.17, 1.72, 0.96, 1.17, 0.93, 0.74, 1.69, 0.6, 0.66, 1.21, 1.05, 1.37, 1.63, 0.95, 0.84, 0.93, 2.24, 0.93, 1.59, 1.6, 1.15, 1.35, 1.76, 2.34, 2.24, 1.93, 1.44, 0.77, 1.55, 0.86, 2.4, 2.0, 1.91, 1.61, 1.74, 0.88, 0.64, 1.84, 1.62, 1.08, 1.72, 1.13, 2.19] (interpolation = "vertex")
        uniform bool primvars:doNotCastShadows = 1
        rel material:binding = </World/Looks/StarMat>
    }

    def Xform "SensorSat" (
        prepend references = @./assets/Satellite_v022.usdc@
    )
    {
        double3 xformOp:translate = (-9.0, 0.0, 0.0)
        float3 xformOp:rotateXYZ = (0, 0, 20)
        double3 xformOp:scale = (0.024, 0.024, 0.024)
        uniform token[] xformOpOrder = ["xformOp:translate", "xformOp:rotateXYZ", "xformOp:scale"]
    }

    def Xform "HubSat" (
        prepend references = @./assets/Satellite_v022.usdc@
    )
    {
        double3 xformOp:translate = (9.0, 1.5, 2.0)
        float3 xformOp:rotateXYZ = (0, 0, -160)
        double3 xformOp:scale = (0.024, 0.024, 0.024)
        uniform token[] xformOpOrder = ["xformOp:translate", "xformOp:rotateXYZ", "xformOp:scale"]
    }

    def Points "Packet" (
        prepend apiSchemas = ["MaterialBindingAPI"]
    )
    {
        point3f[] points = [(-9.0, 0.0, 0.0)]
        float[] widths = [1.4] (interpolation = "vertex")
        uniform bool primvars:doNotCastShadows = 1
        token visibility = "invisible"
        rel material:binding = </World/Looks/PacketMat>
    }

    def BasisCurves "ISLBeam" (
        prepend apiSchemas = ["MaterialBindingAPI"]
    )
    {
        uniform token type = "linear"
        uniform token wrap = "nonperiodic"
        int[] curveVertexCounts = [2]
        point3f[] points = [(-9.0, 0.0, 0.0), (9.0, 1.5, 2.0)]
        float[] widths = [0.35] (interpolation = "constant")
        uniform bool primvars:doNotCastShadows = 1
        token visibility = "invisible"
        rel material:binding = </World/Looks/ISLMat>
    }

    def BasisCurves "ResultBeam" (
        prepend apiSchemas = ["MaterialBindingAPI"]
    )
    {
        uniform token type = "linear"
        uniform token wrap = "nonperiodic"
        int[] curveVertexCounts = [2]
        point3f[] points = [(9.0, 1.5, 2.0), (0, -40, -20)]
        float[] widths = [0.3] (interpolation = "constant")
        uniform bool primvars:doNotCastShadows = 1
        token visibility = "invisible"
        rel material:binding = </World/Looks/ResultMat>
    }

    def Xform "Cameras"
    {
        def Camera "MissionHero"
        {
            float focalLength = 35.0
            float focusDistance = 30
            float2 clippingRange = (0.1, 3000)
            matrix4d xformOp:transform = (
                (1, 0, 0, 0),
                (0, 0.7, 0.71, 0),
                (0, -0.71, 0.7, 0),
                (0, -28, 12, 1)
            )
            uniform token[] xformOpOrder = ["xformOp:transform"]
        }
    }
}
