#usda 1.0
(
    metersPerUnit = 100000
    upAxis = "Z"
)

def Xform "World"
{
    def Xform "Orbit"
    {
        def BasisCurves "OrbitLine"
        {
            int[] curveVertexCounts = [97]
            point3f[] points = [(69.21, 0, 0), (69.06181, 2.2632754, 3.9201078), (68.6179, 4.516859, 7.823429), (67.88015, 6.7511005, 11.69325), (66.85172, 8.956433, 15.512997), (65.53703, 11.123413, 19.266315), (63.941704, 13.24276, 22.937134), (62.072563, 15.3054, 26.509731), (59.93762, 17.3025, 29.96881), (57.546013, 19.225508, 33.299557), (54.907986, 21.066189, 36.48771), (52.034832, 22.816662, 39.51962), (48.93886, 24.46943, 42.382298), (45.633324, 26.017416, 45.063488), (42.132378, 27.453993, 47.55171), (38.451015, 28.773006, 49.836308), (34.605, 29.96881, 51.9075), (30.6108, 31.036282, 53.756416), (26.48552, 31.970852, 55.375137), (22.246826, 32.768517, 56.756737), (17.912867, 33.42586, 57.895294), (13.502201, 33.940075, 58.785934), (9.033718, 34.30895, 59.424843), (4.526551, 34.530907, 59.809288), (4.23789e-15, 34.605, 59.93762), (-4.526551, 34.530907, 59.809288), (-9.033718, 34.30895, 59.424843), (-13.502201, 33.940075, 58.785934), (-17.912867, 33.42586, 57.895294), (-22.246826, 32.768517, 56.756737), (-26.48552, 31.970852, 55.375137), (-30.6108, 31.036282, 53.756416), (-34.605, 29.96881, 51.9075), (-38.451015, 28.773006, 49.836308), (-42.132378, 27.453993, 47.55171), (-45.633324, 26.017416, 45.063488), (-48.93886, 24.46943, 42.382298), (-52.034832, 22.816662, 39.51962), (-54.907986, 21.066189, 36.48771), (-57.546013, 19.225508, 33.299557), (-59.93762, 17.3025, 29.96881), (-62.072563, 15.3054, 26.509731), (-63.941704, 13.24276, 22.937134), (-65.53703, 11.123413, 19.266315), (-66.85172, 8.956433, 15.512997), (-67.88015, 6.7511005, 11.69325), (-68.6179, 4.516859, 7.823429), (-69.06181, 2.2632754, 3.9201078), (-69.21, 4.23789e-15, 7.340241e-15), (-69.06181, -2.2632754, -3.9201078), (-68.6179, -4.516859, -7.823429), (-67.88015, -6.7511005, -11.69325), (-66.85172, -8.956433, -15.512997), (-65.53703, -11.123413, -19.266315), (-63.941704, -13.24276, -22.937134), (-62.072563, -15.3054, -26.509731), (-59.93762, -17.3025, -29.96881), (-57.546013, -19.225508, -33.299557), (-54.907986, -21.066189, -36.48771), (-52.034832, -22.816662, -39.51962), (-48.93886, -24.46943, -42.382298), (-45.633324, -26.017416, -45.063488), (-42.132378, -27.453993, -47.55171), (-38.451015, -28.773006, -49.836308), (-34.605, -29.96881, -51.9075), (-30.6108, -31.036282, -53.756416), (-26.48552, -31.970852, -55.375137), (-22.246826, -32.768517, -56.756737), (-17.912867, -33.42586, -57.895294), (-13.502201, -33.940075, -58.785934), (-9.033718, -34.30895, -59.424843), (-4.526551, -34.530907, -59.809288), (-1.2713671e-14, -34.605, -59.93762), (4.526551, -34.530907, -59.809288), (9.033718, -34.30895, -59.424843), (13.502201, -33.940075, -58.785934), (17.912867, -33.42586, -57.895294), (22.246826, -32.768517, -56.756737), (26.48552, -31.970852, -55.375137), (30.6108, -31.036282, -53.756416), (34.605, -29.96881, -51.9075), (38.451015, -28.773006, -49.836308), (42.132378, -27.453993, -47.55171), (45.633324, -26.017416, -45.063488), (48.93886, -24.46943, -42.382298), (52.034832, -22.816662, -39.51962), (54.907986, -21.066189, -36.48771), (57.546013, -19.225508, -33.299557), (59.93762, -17.3025, -29.96881), (62.072563, -15.3054, -26.509731), (63.941704, -13.24276, -22.937134), (65.53703, -11.123413, -19.266315), (66.85172, -8.956433, -15.512997), (67.88015, -6.7511005, -11.69325), (68.6179, -4.516859, -7.823429), (69.06181, -2.2632754, -3.9201078), (69.21, -8.47578e-15, -1.4680482e-14)]
            color3f[] primvars:displayColor = [(0, 2.2, 2.4)] (
                interpolation = "constant"
            )
            custom uniform bool primvars:doNotCastShadows = 1
            float[] primvars:widths = [0.22] (
                interpolation = "constant"
            )
            uniform token type = "linear"
            float[] widths = [0.22]
        }
    }
}

