#usda 1.0
(
    defaultPrim = "World"
    upAxis = "Z"
    metersPerUnit = 0.01
    doc = "Twin satellite — SpaceDcBackbone.usdz spine: a compute-server blade in each of the 12 rack slots, plus two oversized solar wings on booms off the central deployment brackets. Generated by tools/gen_twin_satellite.py."
)

def Xform "World"
{
    def Scope "Looks"
    {
        def Material "ServerChassis"
        {
            token outputs:surface.connect = </World/Looks/ServerChassis/Shader.outputs:surface>
            def Shader "Shader"
            {
                uniform token info:id = "UsdPreviewSurface"
                color3f inputs:diffuseColor = (0.060, 0.065, 0.078)
                color3f inputs:emissiveColor = (0.010, 0.011, 0.014)
                float inputs:metallic = 0.550
                float inputs:roughness = 0.500
                int inputs:useSpecularWorkflow = 0
                token outputs:surface
            }
        }
        def Material "ServerBezel"
        {
            token outputs:surface.connect = </World/Looks/ServerBezel/Shader.outputs:surface>
            def Shader "Shader"
            {
                uniform token info:id = "UsdPreviewSurface"
                color3f inputs:diffuseColor = (0.020, 0.050, 0.060)
                color3f inputs:emissiveColor = (0.000, 0.850, 1.050)
                float inputs:metallic = 0.000
                float inputs:roughness = 0.300
                int inputs:useSpecularWorkflow = 0
                token outputs:surface
            }
        }
        def Material "ServerHeatsink"
        {
            token outputs:surface.connect = </World/Looks/ServerHeatsink/Shader.outputs:surface>
            def Shader "Shader"
            {
                uniform token info:id = "UsdPreviewSurface"
                color3f inputs:diffuseColor = (0.560, 0.580, 0.610)
                color3f inputs:emissiveColor = (0.000, 0.000, 0.000)
                float inputs:metallic = 0.800
                float inputs:roughness = 0.420
                int inputs:useSpecularWorkflow = 0
                token outputs:surface
            }
        }
        def Material "SolarCell"
        {
            token outputs:surface.connect = </World/Looks/SolarCell/Shader.outputs:surface>
            def Shader "Shader"
            {
                uniform token info:id = "UsdPreviewSurface"
                color3f inputs:diffuseColor = (0.035, 0.085, 0.340)
                color3f inputs:emissiveColor = (0.010, 0.040, 0.160)
                float inputs:metallic = 0.350
                float inputs:roughness = 0.220
                int inputs:useSpecularWorkflow = 0
                token outputs:surface
            }
        }
        def Material "SolarFrame"
        {
            token outputs:surface.connect = </World/Looks/SolarFrame/Shader.outputs:surface>
            def Shader "Shader"
            {
                uniform token info:id = "UsdPreviewSurface"
                color3f inputs:diffuseColor = (0.600, 0.630, 0.700)
                color3f inputs:emissiveColor = (0.000, 0.000, 0.000)
                float inputs:metallic = 0.850
                float inputs:roughness = 0.350
                int inputs:useSpecularWorkflow = 0
                token outputs:surface
            }
        }
    }

    def Xform "Satellite"
    {
        double3 xformOp:scale = (180.0, 180.0, 180.0)
        uniform token[] xformOpOrder = ["xformOp:scale"]

        def Xform "Backbone" (
            prepend references = @./assets/SpaceDcBackbone.usdz@
        )
        {
        }

        def Xform "Servers"
        {
            def Xform "Server_UpY_0"
            {
                def Mesh "Chassis" (
                    prepend apiSchemas = ["MaterialBindingAPI"]
                )
                {
                    uniform bool doubleSided = 1
                    float3[] extent = [(-0.06500, 0.05750, 0.09950), (0.06500, 0.21250, 0.13350)]
                    int[] faceVertexCounts = [4, 4, 4, 4, 4, 4]
                    int[] faceVertexIndices = [0, 3, 2, 1, 4, 5, 6, 7, 0, 1, 5, 4, 2, 3, 7, 6, 1, 2, 6, 5, 0, 4, 7, 3]
                    point3f[] points = [(-0.06500, 0.05750, 0.09950), (0.06500, 0.05750, 0.09950), (0.06500, 0.21250, 0.09950), (-0.06500, 0.21250, 0.09950), (-0.06500, 0.05750, 0.13350), (0.06500, 0.05750, 0.13350), (0.06500, 0.21250, 0.13350), (-0.06500, 0.21250, 0.13350)]
                    uniform token subdivisionScheme = "none"
                    rel material:binding = </World/Looks/ServerChassis>
                }
                def Mesh "Bezel" (
                    prepend apiSchemas = ["MaterialBindingAPI"]
                )
                {
                    uniform bool doubleSided = 1
                    float3[] extent = [(-0.05850, 0.20750, 0.10324), (0.05850, 0.21750, 0.12976)]
                    int[] faceVertexCounts = [4, 4, 4, 4, 4, 4]
                    int[] faceVertexIndices = [0, 3, 2, 1, 4, 5, 6, 7, 0, 1, 5, 4, 2, 3, 7, 6, 1, 2, 6, 5, 0, 4, 7, 3]
                    point3f[] points = [(-0.05850, 0.20750, 0.10324), (0.05850, 0.20750, 0.10324), (0.05850, 0.21750, 0.10324), (-0.05850, 0.21750, 0.10324), (-0.05850, 0.20750, 0.12976), (0.05850, 0.20750, 0.12976), (0.05850, 0.21750, 0.12976), (-0.05850, 0.21750, 0.12976)]
                    uniform token subdivisionScheme = "none"
                    rel material:binding = </World/Looks/ServerBezel>
                }
                def Mesh "Heatsink" (
                    prepend apiSchemas = ["MaterialBindingAPI"]
                )
                {
                    uniform bool doubleSided = 1
                    float3[] extent = [(-0.04550, 0.06835, 0.13050), (0.04550, 0.20165, 0.13650)]
                    int[] faceVertexCounts = [4, 4, 4, 4, 4, 4]
                    int[] faceVertexIndices = [0, 3, 2, 1, 4, 5, 6, 7, 0, 1, 5, 4, 2, 3, 7, 6, 1, 2, 6, 5, 0, 4, 7, 3]
                    point3f[] points = [(-0.04550, 0.06835, 0.13050), (0.04550, 0.06835, 0.13050), (0.04550, 0.20165, 0.13050), (-0.04550, 0.20165, 0.13050), (-0.04550, 0.06835, 0.13650), (0.04550, 0.06835, 0.13650), (0.04550, 0.20165, 0.13650), (-0.04550, 0.20165, 0.13650)]
                    uniform token subdivisionScheme = "none"
                    rel material:binding = </World/Looks/ServerHeatsink>
                }
            }
            def Xform "Server_UpY_1"
            {
                def Mesh "Chassis" (
                    prepend apiSchemas = ["MaterialBindingAPI"]
                )
                {
                    uniform bool doubleSided = 1
                    float3[] extent = [(-0.06500, 0.05750, 0.19050), (0.06500, 0.21250, 0.22450)]
                    int[] faceVertexCounts = [4, 4, 4, 4, 4, 4]
                    int[] faceVertexIndices = [0, 3, 2, 1, 4, 5, 6, 7, 0, 1, 5, 4, 2, 3, 7, 6, 1, 2, 6, 5, 0, 4, 7, 3]
                    point3f[] points = [(-0.06500, 0.05750, 0.19050), (0.06500, 0.05750, 0.19050), (0.06500, 0.21250, 0.19050), (-0.06500, 0.21250, 0.19050), (-0.06500, 0.05750, 0.22450), (0.06500, 0.05750, 0.22450), (0.06500, 0.21250, 0.22450), (-0.06500, 0.21250, 0.22450)]
                    uniform token subdivisionScheme = "none"
                    rel material:binding = </World/Looks/ServerChassis>
                }
                def Mesh "Bezel" (
                    prepend apiSchemas = ["MaterialBindingAPI"]
                )
                {
                    uniform bool doubleSided = 1
                    float3[] extent = [(-0.05850, 0.20750, 0.19424), (0.05850, 0.21750, 0.22076)]
                    int[] faceVertexCounts = [4, 4, 4, 4, 4, 4]
                    int[] faceVertexIndices = [0, 3, 2, 1, 4, 5, 6, 7, 0, 1, 5, 4, 2, 3, 7, 6, 1, 2, 6, 5, 0, 4, 7, 3]
                    point3f[] points = [(-0.05850, 0.20750, 0.19424), (0.05850, 0.20750, 0.19424), (0.05850, 0.21750, 0.19424), (-0.05850, 0.21750, 0.19424), (-0.05850, 0.20750, 0.22076), (0.05850, 0.20750, 0.22076), (0.05850, 0.21750, 0.22076), (-0.05850, 0.21750, 0.22076)]
                    uniform token subdivisionScheme = "none"
                    rel material:binding = </World/Looks/ServerBezel>
                }
                def Mesh "Heatsink" (
                    prepend apiSchemas = ["MaterialBindingAPI"]
                )
                {
                    uniform bool doubleSided = 1
                    float3[] extent = [(-0.04550, 0.06835, 0.22150), (0.04550, 0.20165, 0.22750)]
                    int[] faceVertexCounts = [4, 4, 4, 4, 4, 4]
                    int[] faceVertexIndices = [0, 3, 2, 1, 4, 5, 6, 7, 0, 1, 5, 4, 2, 3, 7, 6, 1, 2, 6, 5, 0, 4, 7, 3]
                    point3f[] points = [(-0.04550, 0.06835, 0.22150), (0.04550, 0.06835, 0.22150), (0.04550, 0.20165, 0.22150), (-0.04550, 0.20165, 0.22150), (-0.04550, 0.06835, 0.22750), (0.04550, 0.06835, 0.22750), (0.04550, 0.20165, 0.22750), (-0.04550, 0.20165, 0.22750)]
                    uniform token subdivisionScheme = "none"
                    rel material:binding = </World/Looks/ServerHeatsink>
                }
            }
            def Xform "Server_UpY_2"
            {
                def Mesh "Chassis" (
                    prepend apiSchemas = ["MaterialBindingAPI"]
                )
                {
                    uniform bool doubleSided = 1
                    float3[] extent = [(-0.06500, 0.05750, 0.28100), (0.06500, 0.21250, 0.31500)]
                    int[] faceVertexCounts = [4, 4, 4, 4, 4, 4]
                    int[] faceVertexIndices = [0, 3, 2, 1, 4, 5, 6, 7, 0, 1, 5, 4, 2, 3, 7, 6, 1, 2, 6, 5, 0, 4, 7, 3]
                    point3f[] points = [(-0.06500, 0.05750, 0.28100), (0.06500, 0.05750, 0.28100), (0.06500, 0.21250, 0.28100), (-0.06500, 0.21250, 0.28100), (-0.06500, 0.05750, 0.31500), (0.06500, 0.05750, 0.31500), (0.06500, 0.21250, 0.31500), (-0.06500, 0.21250, 0.31500)]
                    uniform token subdivisionScheme = "none"
                    rel material:binding = </World/Looks/ServerChassis>
                }
                def Mesh "Bezel" (
                    prepend apiSchemas = ["MaterialBindingAPI"]
                )
                {
                    uniform bool doubleSided = 1
                    float3[] extent = [(-0.05850, 0.20750, 0.28474), (0.05850, 0.21750, 0.31126)]
                    int[] faceVertexCounts = [4, 4, 4, 4, 4, 4]
                    int[] faceVertexIndices = [0, 3, 2, 1, 4, 5, 6, 7, 0, 1, 5, 4, 2, 3, 7, 6, 1, 2, 6, 5, 0, 4, 7, 3]
                    point3f[] points = [(-0.05850, 0.20750, 0.28474), (0.05850, 0.20750, 0.28474), (0.05850, 0.21750, 0.28474), (-0.05850, 0.21750, 0.28474), (-0.05850, 0.20750, 0.31126), (0.05850, 0.20750, 0.31126), (0.05850, 0.21750, 0.31126), (-0.05850, 0.21750, 0.31126)]
                    uniform token subdivisionScheme = "none"
                    rel material:binding = </World/Looks/ServerBezel>
                }
                def Mesh "Heatsink" (
                    prepend apiSchemas = ["MaterialBindingAPI"]
                )
                {
                    uniform bool doubleSided = 1
                    float3[] extent = [(-0.04550, 0.06835, 0.31200), (0.04550, 0.20165, 0.31800)]
                    int[] faceVertexCounts = [4, 4, 4, 4, 4, 4]
                    int[] faceVertexIndices = [0, 3, 2, 1, 4, 5, 6, 7, 0, 1, 5, 4, 2, 3, 7, 6, 1, 2, 6, 5, 0, 4, 7, 3]
                    point3f[] points = [(-0.04550, 0.06835, 0.31200), (0.04550, 0.06835, 0.31200), (0.04550, 0.20165, 0.31200), (-0.04550, 0.20165, 0.31200), (-0.04550, 0.06835, 0.31800), (0.04550, 0.06835, 0.31800), (0.04550, 0.20165, 0.31800), (-0.04550, 0.20165, 0.31800)]
                    uniform token subdivisionScheme = "none"
                    rel material:binding = </World/Looks/ServerHeatsink>
                }
            }
            def Xform "Server_UnY_0"
            {
                def Mesh "Chassis" (
                    prepend apiSchemas = ["MaterialBindingAPI"]
                )
                {
                    uniform bool doubleSided = 1
                    float3[] extent = [(-0.06500, -0.21250, 0.09950), (0.06500, -0.05750, 0.13350)]
                    int[] faceVertexCounts = [4, 4, 4, 4, 4, 4]
                    int[] faceVertexIndices = [0, 3, 2, 1, 4, 5, 6, 7, 0, 1, 5, 4, 2, 3, 7, 6, 1, 2, 6, 5, 0, 4, 7, 3]
                    point3f[] points = [(-0.06500, -0.21250, 0.09950), (0.06500, -0.21250, 0.09950), (0.06500, -0.05750, 0.09950), (-0.06500, -0.05750, 0.09950), (-0.06500, -0.21250, 0.13350), (0.06500, -0.21250, 0.13350), (0.06500, -0.05750, 0.13350), (-0.06500, -0.05750, 0.13350)]
                    uniform token subdivisionScheme = "none"
                    rel material:binding = </World/Looks/ServerChassis>
                }
                def Mesh "Bezel" (
                    prepend apiSchemas = ["MaterialBindingAPI"]
                )
                {
                    uniform bool doubleSided = 1
                    float3[] extent = [(-0.05850, -0.21750, 0.10324), (0.05850, -0.20750, 0.12976)]
                    int[] faceVertexCounts = [4, 4, 4, 4, 4, 4]
                    int[] faceVertexIndices = [0, 3, 2, 1, 4, 5, 6, 7, 0, 1, 5, 4, 2, 3, 7, 6, 1, 2, 6, 5, 0, 4, 7, 3]
                    point3f[] points = [(-0.05850, -0.21750, 0.10324), (0.05850, -0.21750, 0.10324), (0.05850, -0.20750, 0.10324), (-0.05850, -0.20750, 0.10324), (-0.05850, -0.21750, 0.12976), (0.05850, -0.21750, 0.12976), (0.05850, -0.20750, 0.12976), (-0.05850, -0.20750, 0.12976)]
                    uniform token subdivisionScheme = "none"
                    rel material:binding = </World/Looks/ServerBezel>
                }
                def Mesh "Heatsink" (
                    prepend apiSchemas = ["MaterialBindingAPI"]
                )
                {
                    uniform bool doubleSided = 1
                    float3[] extent = [(-0.04550, -0.20165, 0.13050), (0.04550, -0.06835, 0.13650)]
                    int[] faceVertexCounts = [4, 4, 4, 4, 4, 4]
                    int[] faceVertexIndices = [0, 3, 2, 1, 4, 5, 6, 7, 0, 1, 5, 4, 2, 3, 7, 6, 1, 2, 6, 5, 0, 4, 7, 3]
                    point3f[] points = [(-0.04550, -0.20165, 0.13050), (0.04550, -0.20165, 0.13050), (0.04550, -0.06835, 0.13050), (-0.04550, -0.06835, 0.13050), (-0.04550, -0.20165, 0.13650), (0.04550, -0.20165, 0.13650), (0.04550, -0.06835, 0.13650), (-0.04550, -0.06835, 0.13650)]
                    uniform token subdivisionScheme = "none"
                    rel material:binding = </World/Looks/ServerHeatsink>
                }
            }
            def Xform "Server_UnY_1"
            {
                def Mesh "Chassis" (
                    prepend apiSchemas = ["MaterialBindingAPI"]
                )
                {
                    uniform bool doubleSided = 1
                    float3[] extent = [(-0.06500, -0.21250, 0.19050), (0.06500, -0.05750, 0.22450)]
                    int[] faceVertexCounts = [4, 4, 4, 4, 4, 4]
                    int[] faceVertexIndices = [0, 3, 2, 1, 4, 5, 6, 7, 0, 1, 5, 4, 2, 3, 7, 6, 1, 2, 6, 5, 0, 4, 7, 3]
                    point3f[] points = [(-0.06500, -0.21250, 0.19050), (0.06500, -0.21250, 0.19050), (0.06500, -0.05750, 0.19050), (-0.06500, -0.05750, 0.19050), (-0.06500, -0.21250, 0.22450), (0.06500, -0.21250, 0.22450), (0.06500, -0.05750, 0.22450), (-0.06500, -0.05750, 0.22450)]
                    uniform token subdivisionScheme = "none"
                    rel material:binding = </World/Looks/ServerChassis>
                }
                def Mesh "Bezel" (
                    prepend apiSchemas = ["MaterialBindingAPI"]
                )
                {
                    uniform bool doubleSided = 1
                    float3[] extent = [(-0.05850, -0.21750, 0.19424), (0.05850, -0.20750, 0.22076)]
                    int[] faceVertexCounts = [4, 4, 4, 4, 4, 4]
                    int[] faceVertexIndices = [0, 3, 2, 1, 4, 5, 6, 7, 0, 1, 5, 4, 2, 3, 7, 6, 1, 2, 6, 5, 0, 4, 7, 3]
                    point3f[] points = [(-0.05850, -0.21750, 0.19424), (0.05850, -0.21750, 0.19424), (0.05850, -0.20750, 0.19424), (-0.05850, -0.20750, 0.19424), (-0.05850, -0.21750, 0.22076), (0.05850, -0.21750, 0.22076), (0.05850, -0.20750, 0.22076), (-0.05850, -0.20750, 0.22076)]
                    uniform token subdivisionScheme = "none"
                    rel material:binding = </World/Looks/ServerBezel>
                }
                def Mesh "Heatsink" (
                    prepend apiSchemas = ["MaterialBindingAPI"]
                )
                {
                    uniform bool doubleSided = 1
                    float3[] extent = [(-0.04550, -0.20165, 0.22150), (0.04550, -0.06835, 0.22750)]
                    int[] faceVertexCounts = [4, 4, 4, 4, 4, 4]
                    int[] faceVertexIndices = [0, 3, 2, 1, 4, 5, 6, 7, 0, 1, 5, 4, 2, 3, 7, 6, 1, 2, 6, 5, 0, 4, 7, 3]
                    point3f[] points = [(-0.04550, -0.20165, 0.22150), (0.04550, -0.20165, 0.22150), (0.04550, -0.06835, 0.22150), (-0.04550, -0.06835, 0.22150), (-0.04550, -0.20165, 0.22750), (0.04550, -0.20165, 0.22750), (0.04550, -0.06835, 0.22750), (-0.04550, -0.06835, 0.22750)]
                    uniform token subdivisionScheme = "none"
                    rel material:binding = </World/Looks/ServerHeatsink>
                }
            }
            def Xform "Server_UnY_2"
            {
                def Mesh "Chassis" (
                    prepend apiSchemas = ["MaterialBindingAPI"]
                )
                {
                    uniform bool doubleSided = 1
                    float3[] extent = [(-0.06500, -0.21250, 0.28100), (0.06500, -0.05750, 0.31500)]
                    int[] faceVertexCounts = [4, 4, 4, 4, 4, 4]
                    int[] faceVertexIndices = [0, 3, 2, 1, 4, 5, 6, 7, 0, 1, 5, 4, 2, 3, 7, 6, 1, 2, 6, 5, 0, 4, 7, 3]
                    point3f[] points = [(-0.06500, -0.21250, 0.28100), (0.06500, -0.21250, 0.28100), (0.06500, -0.05750, 0.28100), (-0.06500, -0.05750, 0.28100), (-0.06500, -0.21250, 0.31500), (0.06500, -0.21250, 0.31500), (0.06500, -0.05750, 0.31500), (-0.06500, -0.05750, 0.31500)]
                    uniform token subdivisionScheme = "none"
                    rel material:binding = </World/Looks/ServerChassis>
                }
                def Mesh "Bezel" (
                    prepend apiSchemas = ["MaterialBindingAPI"]
                )
                {
                    uniform bool doubleSided = 1
                    float3[] extent = [(-0.05850, -0.21750, 0.28474), (0.05850, -0.20750, 0.31126)]
                    int[] faceVertexCounts = [4, 4, 4, 4, 4, 4]
                    int[] faceVertexIndices = [0, 3, 2, 1, 4, 5, 6, 7, 0, 1, 5, 4, 2, 3, 7, 6, 1, 2, 6, 5, 0, 4, 7, 3]
                    point3f[] points = [(-0.05850, -0.21750, 0.28474), (0.05850, -0.21750, 0.28474), (0.05850, -0.20750, 0.28474), (-0.05850, -0.20750, 0.28474), (-0.05850, -0.21750, 0.31126), (0.05850, -0.21750, 0.31126), (0.05850, -0.20750, 0.31126), (-0.05850, -0.20750, 0.31126)]
                    uniform token subdivisionScheme = "none"
                    rel material:binding = </World/Looks/ServerBezel>
                }
                def Mesh "Heatsink" (
                    prepend apiSchemas = ["MaterialBindingAPI"]
                )
                {
                    uniform bool doubleSided = 1
                    float3[] extent = [(-0.04550, -0.20165, 0.31200), (0.04550, -0.06835, 0.31800)]
                    int[] faceVertexCounts = [4, 4, 4, 4, 4, 4]
                    int[] faceVertexIndices = [0, 3, 2, 1, 4, 5, 6, 7, 0, 1, 5, 4, 2, 3, 7, 6, 1, 2, 6, 5, 0, 4, 7, 3]
                    point3f[] points = [(-0.04550, -0.20165, 0.31200), (0.04550, -0.20165, 0.31200), (0.04550, -0.06835, 0.31200), (-0.04550, -0.06835, 0.31200), (-0.04550, -0.20165, 0.31800), (0.04550, -0.20165, 0.31800), (0.04550, -0.06835, 0.31800), (-0.04550, -0.06835, 0.31800)]
                    uniform token subdivisionScheme = "none"
                    rel material:binding = </World/Looks/ServerHeatsink>
                }
            }
            def Xform "Server_LpY_0"
            {
                def Mesh "Chassis" (
                    prepend apiSchemas = ["MaterialBindingAPI"]
                )
                {
                    uniform bool doubleSided = 1
                    float3[] extent = [(-0.06500, 0.05750, -0.17920), (0.06500, 0.21250, -0.14520)]
                    int[] faceVertexCounts = [4, 4, 4, 4, 4, 4]
                    int[] faceVertexIndices = [0, 3, 2, 1, 4, 5, 6, 7, 0, 1, 5, 4, 2, 3, 7, 6, 1, 2, 6, 5, 0, 4, 7, 3]
                    point3f[] points = [(-0.06500, 0.05750, -0.17920), (0.06500, 0.05750, -0.17920), (0.06500, 0.21250, -0.17920), (-0.06500, 0.21250, -0.17920), (-0.06500, 0.05750, -0.14520), (0.06500, 0.05750, -0.14520), (0.06500, 0.21250, -0.14520), (-0.06500, 0.21250, -0.14520)]
                    uniform token subdivisionScheme = "none"
                    rel material:binding = </World/Looks/ServerChassis>
                }
                def Mesh "Bezel" (
                    prepend apiSchemas = ["MaterialBindingAPI"]
                )
                {
                    uniform bool doubleSided = 1
                    float3[] extent = [(-0.05850, 0.20750, -0.17546), (0.05850, 0.21750, -0.14894)]
                    int[] faceVertexCounts = [4, 4, 4, 4, 4, 4]
                    int[] faceVertexIndices = [0, 3, 2, 1, 4, 5, 6, 7, 0, 1, 5, 4, 2, 3, 7, 6, 1, 2, 6, 5, 0, 4, 7, 3]
                    point3f[] points = [(-0.05850, 0.20750, -0.17546), (0.05850, 0.20750, -0.17546), (0.05850, 0.21750, -0.17546), (-0.05850, 0.21750, -0.17546), (-0.05850, 0.20750, -0.14894), (0.05850, 0.20750, -0.14894), (0.05850, 0.21750, -0.14894), (-0.05850, 0.21750, -0.14894)]
                    uniform token subdivisionScheme = "none"
                    rel material:binding = </World/Looks/ServerBezel>
                }
                def Mesh "Heatsink" (
                    prepend apiSchemas = ["MaterialBindingAPI"]
                )
                {
                    uniform bool doubleSided = 1
                    float3[] extent = [(-0.04550, 0.06835, -0.14820), (0.04550, 0.20165, -0.14220)]
                    int[] faceVertexCounts = [4, 4, 4, 4, 4, 4]
                    int[] faceVertexIndices = [0, 3, 2, 1, 4, 5, 6, 7, 0, 1, 5, 4, 2, 3, 7, 6, 1, 2, 6, 5, 0, 4, 7, 3]
                    point3f[] points = [(-0.04550, 0.06835, -0.14820), (0.04550, 0.06835, -0.14820), (0.04550, 0.20165, -0.14820), (-0.04550, 0.20165, -0.14820), (-0.04550, 0.06835, -0.14220), (0.04550, 0.06835, -0.14220), (0.04550, 0.20165, -0.14220), (-0.04550, 0.20165, -0.14220)]
                    uniform token subdivisionScheme = "none"
                    rel material:binding = </World/Looks/ServerHeatsink>
                }
            }
            def Xform "Server_LpY_1"
            {
                def Mesh "Chassis" (
                    prepend apiSchemas = ["MaterialBindingAPI"]
                )
                {
                    uniform bool doubleSided = 1
                    float3[] extent = [(-0.06500, 0.05750, -0.27040), (0.06500, 0.21250, -0.23640)]
                    int[] faceVertexCounts = [4, 4, 4, 4, 4, 4]
                    int[] faceVertexIndices = [0, 3, 2, 1, 4, 5, 6, 7, 0, 1, 5, 4, 2, 3, 7, 6, 1, 2, 6, 5, 0, 4, 7, 3]
                    point3f[] points = [(-0.06500, 0.05750, -0.27040), (0.06500, 0.05750, -0.27040), (0.06500, 0.21250, -0.27040), (-0.06500, 0.21250, -0.27040), (-0.06500, 0.05750, -0.23640), (0.06500, 0.05750, -0.23640), (0.06500, 0.21250, -0.23640), (-0.06500, 0.21250, -0.23640)]
                    uniform token subdivisionScheme = "none"
                    rel material:binding = </World/Looks/ServerChassis>
                }
                def Mesh "Bezel" (
                    prepend apiSchemas = ["MaterialBindingAPI"]
                )
                {
                    uniform bool doubleSided = 1
                    float3[] extent = [(-0.05850, 0.20750, -0.26666), (0.05850, 0.21750, -0.24014)]
                    int[] faceVertexCounts = [4, 4, 4, 4, 4, 4]
                    int[] faceVertexIndices = [0, 3, 2, 1, 4, 5, 6, 7, 0, 1, 5, 4, 2, 3, 7, 6, 1, 2, 6, 5, 0, 4, 7, 3]
                    point3f[] points = [(-0.05850, 0.20750, -0.26666), (0.05850, 0.20750, -0.26666), (0.05850, 0.21750, -0.26666), (-0.05850, 0.21750, -0.26666), (-0.05850, 0.20750, -0.24014), (0.05850, 0.20750, -0.24014), (0.05850, 0.21750, -0.24014), (-0.05850, 0.21750, -0.24014)]
                    uniform token subdivisionScheme = "none"
                    rel material:binding = </World/Looks/ServerBezel>
                }
                def Mesh "Heatsink" (
                    prepend apiSchemas = ["MaterialBindingAPI"]
                )
                {
                    uniform bool doubleSided = 1
                    float3[] extent = [(-0.04550, 0.06835, -0.23940), (0.04550, 0.20165, -0.23340)]
                    int[] faceVertexCounts = [4, 4, 4, 4, 4, 4]
                    int[] faceVertexIndices = [0, 3, 2, 1, 4, 5, 6, 7, 0, 1, 5, 4, 2, 3, 7, 6, 1, 2, 6, 5, 0, 4, 7, 3]
                    point3f[] points = [(-0.04550, 0.06835, -0.23940), (0.04550, 0.06835, -0.23940), (0.04550, 0.20165, -0.23940), (-0.04550, 0.20165, -0.23940), (-0.04550, 0.06835, -0.23340), (0.04550, 0.06835, -0.23340), (0.04550, 0.20165, -0.23340), (-0.04550, 0.20165, -0.23340)]
                    uniform token subdivisionScheme = "none"
                    rel material:binding = </World/Looks/ServerHeatsink>
                }
            }
            def Xform "Server_LpY_2"
            {
                def Mesh "Chassis" (
                    prepend apiSchemas = ["MaterialBindingAPI"]
                )
                {
                    uniform bool doubleSided = 1
                    float3[] extent = [(-0.06500, 0.05750, -0.36160), (0.06500, 0.21250, -0.32760)]
                    int[] faceVertexCounts = [4, 4, 4, 4, 4, 4]
                    int[] faceVertexIndices = [0, 3, 2, 1, 4, 5, 6, 7, 0, 1, 5, 4, 2, 3, 7, 6, 1, 2, 6, 5, 0, 4, 7, 3]
                    point3f[] points = [(-0.06500, 0.05750, -0.36160), (0.06500, 0.05750, -0.36160), (0.06500, 0.21250, -0.36160), (-0.06500, 0.21250, -0.36160), (-0.06500, 0.05750, -0.32760), (0.06500, 0.05750, -0.32760), (0.06500, 0.21250, -0.32760), (-0.06500, 0.21250, -0.32760)]
                    uniform token subdivisionScheme = "none"
                    rel material:binding = </World/Looks/ServerChassis>
                }
                def Mesh "Bezel" (
                    prepend apiSchemas = ["MaterialBindingAPI"]
                )
                {
                    uniform bool doubleSided = 1
                    float3[] extent = [(-0.05850, 0.20750, -0.35786), (0.05850, 0.21750, -0.33134)]
                    int[] faceVertexCounts = [4, 4, 4, 4, 4, 4]
                    int[] faceVertexIndices = [0, 3, 2, 1, 4, 5, 6, 7, 0, 1, 5, 4, 2, 3, 7, 6, 1, 2, 6, 5, 0, 4, 7, 3]
                    point3f[] points = [(-0.05850, 0.20750, -0.35786), (0.05850, 0.20750, -0.35786), (0.05850, 0.21750, -0.35786), (-0.05850, 0.21750, -0.35786), (-0.05850, 0.20750, -0.33134), (0.05850, 0.20750, -0.33134), (0.05850, 0.21750, -0.33134), (-0.05850, 0.21750, -0.33134)]
                    uniform token subdivisionScheme = "none"
                    rel material:binding = </World/Looks/ServerBezel>
                }
                def Mesh "Heatsink" (
                    prepend apiSchemas = ["MaterialBindingAPI"]
                )
                {
                    uniform bool doubleSided = 1
                    float3[] extent = [(-0.04550, 0.06835, -0.33060), (0.04550, 0.20165, -0.32460)]
                    int[] faceVertexCounts = [4, 4, 4, 4, 4, 4]
                    int[] faceVertexIndices = [0, 3, 2, 1, 4, 5, 6, 7, 0, 1, 5, 4, 2, 3, 7, 6, 1, 2, 6, 5, 0, 4, 7, 3]
                    point3f[] points = [(-0.04550, 0.06835, -0.33060), (0.04550, 0.06835, -0.33060), (0.04550, 0.20165, -0.33060), (-0.04550, 0.20165, -0.33060), (-0.04550, 0.06835, -0.32460), (0.04550, 0.06835, -0.32460), (0.04550, 0.20165, -0.32460), (-0.04550, 0.20165, -0.32460)]
                    uniform token subdivisionScheme = "none"
                    rel material:binding = </World/Looks/ServerHeatsink>
                }
            }
            def Xform "Server_LnY_0"
            {
                def Mesh "Chassis" (
                    prepend apiSchemas = ["MaterialBindingAPI"]
                )
                {
                    uniform bool doubleSided = 1
                    float3[] extent = [(-0.06500, -0.21250, -0.17920), (0.06500, -0.05750, -0.14520)]
                    int[] faceVertexCounts = [4, 4, 4, 4, 4, 4]
                    int[] faceVertexIndices = [0, 3, 2, 1, 4, 5, 6, 7, 0, 1, 5, 4, 2, 3, 7, 6, 1, 2, 6, 5, 0, 4, 7, 3]
                    point3f[] points = [(-0.06500, -0.21250, -0.17920), (0.06500, -0.21250, -0.17920), (0.06500, -0.05750, -0.17920), (-0.06500, -0.05750, -0.17920), (-0.06500, -0.21250, -0.14520), (0.06500, -0.21250, -0.14520), (0.06500, -0.05750, -0.14520), (-0.06500, -0.05750, -0.14520)]
                    uniform token subdivisionScheme = "none"
                    rel material:binding = </World/Looks/ServerChassis>
                }
                def Mesh "Bezel" (
                    prepend apiSchemas = ["MaterialBindingAPI"]
                )
                {
                    uniform bool doubleSided = 1
                    float3[] extent = [(-0.05850, -0.21750, -0.17546), (0.05850, -0.20750, -0.14894)]
                    int[] faceVertexCounts = [4, 4, 4, 4, 4, 4]
                    int[] faceVertexIndices = [0, 3, 2, 1, 4, 5, 6, 7, 0, 1, 5, 4, 2, 3, 7, 6, 1, 2, 6, 5, 0, 4, 7, 3]
                    point3f[] points = [(-0.05850, -0.21750, -0.17546), (0.05850, -0.21750, -0.17546), (0.05850, -0.20750, -0.17546), (-0.05850, -0.20750, -0.17546), (-0.05850, -0.21750, -0.14894), (0.05850, -0.21750, -0.14894), (0.05850, -0.20750, -0.14894), (-0.05850, -0.20750, -0.14894)]
                    uniform token subdivisionScheme = "none"
                    rel material:binding = </World/Looks/ServerBezel>
                }
                def Mesh "Heatsink" (
                    prepend apiSchemas = ["MaterialBindingAPI"]
                )
                {
                    uniform bool doubleSided = 1
                    float3[] extent = [(-0.04550, -0.20165, -0.14820), (0.04550, -0.06835, -0.14220)]
                    int[] faceVertexCounts = [4, 4, 4, 4, 4, 4]
                    int[] faceVertexIndices = [0, 3, 2, 1, 4, 5, 6, 7, 0, 1, 5, 4, 2, 3, 7, 6, 1, 2, 6, 5, 0, 4, 7, 3]
                    point3f[] points = [(-0.04550, -0.20165, -0.14820), (0.04550, -0.20165, -0.14820), (0.04550, -0.06835, -0.14820), (-0.04550, -0.06835, -0.14820), (-0.04550, -0.20165, -0.14220), (0.04550, -0.20165, -0.14220), (0.04550, -0.06835, -0.14220), (-0.04550, -0.06835, -0.14220)]
                    uniform token subdivisionScheme = "none"
                    rel material:binding = </World/Looks/ServerHeatsink>
                }
            }
            def Xform "Server_LnY_1"
            {
                def Mesh "Chassis" (
                    prepend apiSchemas = ["MaterialBindingAPI"]
                )
                {
                    uniform bool doubleSided = 1
                    float3[] extent = [(-0.06500, -0.21250, -0.27040), (0.06500, -0.05750, -0.23640)]
                    int[] faceVertexCounts = [4, 4, 4, 4, 4, 4]
                    int[] faceVertexIndices = [0, 3, 2, 1, 4, 5, 6, 7, 0, 1, 5, 4, 2, 3, 7, 6, 1, 2, 6, 5, 0, 4, 7, 3]
                    point3f[] points = [(-0.06500, -0.21250, -0.27040), (0.06500, -0.21250, -0.27040), (0.06500, -0.05750, -0.27040), (-0.06500, -0.05750, -0.27040), (-0.06500, -0.21250, -0.23640), (0.06500, -0.21250, -0.23640), (0.06500, -0.05750, -0.23640), (-0.06500, -0.05750, -0.23640)]
                    uniform token subdivisionScheme = "none"
                    rel material:binding = </World/Looks/ServerChassis>
                }
                def Mesh "Bezel" (
                    prepend apiSchemas = ["MaterialBindingAPI"]
                )
                {
                    uniform bool doubleSided = 1
                    float3[] extent = [(-0.05850, -0.21750, -0.26666), (0.05850, -0.20750, -0.24014)]
                    int[] faceVertexCounts = [4, 4, 4, 4, 4, 4]
                    int[] faceVertexIndices = [0, 3, 2, 1, 4, 5, 6, 7, 0, 1, 5, 4, 2, 3, 7, 6, 1, 2, 6, 5, 0, 4, 7, 3]
                    point3f[] points = [(-0.05850, -0.21750, -0.26666), (0.05850, -0.21750, -0.26666), (0.05850, -0.20750, -0.26666), (-0.05850, -0.20750, -0.26666), (-0.05850, -0.21750, -0.24014), (0.05850, -0.21750, -0.24014), (0.05850, -0.20750, -0.24014), (-0.05850, -0.20750, -0.24014)]
                    uniform token subdivisionScheme = "none"
                    rel material:binding = </World/Looks/ServerBezel>
                }
                def Mesh "Heatsink" (
                    prepend apiSchemas = ["MaterialBindingAPI"]
                )
                {
                    uniform bool doubleSided = 1
                    float3[] extent = [(-0.04550, -0.20165, -0.23940), (0.04550, -0.06835, -0.23340)]
                    int[] faceVertexCounts = [4, 4, 4, 4, 4, 4]
                    int[] faceVertexIndices = [0, 3, 2, 1, 4, 5, 6, 7, 0, 1, 5, 4, 2, 3, 7, 6, 1, 2, 6, 5, 0, 4, 7, 3]
                    point3f[] points = [(-0.04550, -0.20165, -0.23940), (0.04550, -0.20165, -0.23940), (0.04550, -0.06835, -0.23940), (-0.04550, -0.06835, -0.23940), (-0.04550, -0.20165, -0.23340), (0.04550, -0.20165, -0.23340), (0.04550, -0.06835, -0.23340), (-0.04550, -0.06835, -0.23340)]
                    uniform token subdivisionScheme = "none"
                    rel material:binding = </World/Looks/ServerHeatsink>
                }
            }
            def Xform "Server_LnY_2"
            {
                def Mesh "Chassis" (
                    prepend apiSchemas = ["MaterialBindingAPI"]
                )
                {
                    uniform bool doubleSided = 1
                    float3[] extent = [(-0.06500, -0.21250, -0.36160), (0.06500, -0.05750, -0.32760)]
                    int[] faceVertexCounts = [4, 4, 4, 4, 4, 4]
                    int[] faceVertexIndices = [0, 3, 2, 1, 4, 5, 6, 7, 0, 1, 5, 4, 2, 3, 7, 6, 1, 2, 6, 5, 0, 4, 7, 3]
                    point3f[] points = [(-0.06500, -0.21250, -0.36160), (0.06500, -0.21250, -0.36160), (0.06500, -0.05750, -0.36160), (-0.06500, -0.05750, -0.36160), (-0.06500, -0.21250, -0.32760), (0.06500, -0.21250, -0.32760), (0.06500, -0.05750, -0.32760), (-0.06500, -0.05750, -0.32760)]
                    uniform token subdivisionScheme = "none"
                    rel material:binding = </World/Looks/ServerChassis>
                }
                def Mesh "Bezel" (
                    prepend apiSchemas = ["MaterialBindingAPI"]
                )
                {
                    uniform bool doubleSided = 1
                    float3[] extent = [(-0.05850, -0.21750, -0.35786), (0.05850, -0.20750, -0.33134)]
                    int[] faceVertexCounts = [4, 4, 4, 4, 4, 4]
                    int[] faceVertexIndices = [0, 3, 2, 1, 4, 5, 6, 7, 0, 1, 5, 4, 2, 3, 7, 6, 1, 2, 6, 5, 0, 4, 7, 3]
                    point3f[] points = [(-0.05850, -0.21750, -0.35786), (0.05850, -0.21750, -0.35786), (0.05850, -0.20750, -0.35786), (-0.05850, -0.20750, -0.35786), (-0.05850, -0.21750, -0.33134), (0.05850, -0.21750, -0.33134), (0.05850, -0.20750, -0.33134), (-0.05850, -0.20750, -0.33134)]
                    uniform token subdivisionScheme = "none"
                    rel material:binding = </World/Looks/ServerBezel>
                }
                def Mesh "Heatsink" (
                    prepend apiSchemas = ["MaterialBindingAPI"]
                )
                {
                    uniform bool doubleSided = 1
                    float3[] extent = [(-0.04550, -0.20165, -0.33060), (0.04550, -0.06835, -0.32460)]
                    int[] faceVertexCounts = [4, 4, 4, 4, 4, 4]
                    int[] faceVertexIndices = [0, 3, 2, 1, 4, 5, 6, 7, 0, 1, 5, 4, 2, 3, 7, 6, 1, 2, 6, 5, 0, 4, 7, 3]
                    point3f[] points = [(-0.04550, -0.20165, -0.33060), (0.04550, -0.20165, -0.33060), (0.04550, -0.06835, -0.33060), (-0.04550, -0.06835, -0.33060), (-0.04550, -0.20165, -0.32460), (0.04550, -0.20165, -0.32460), (0.04550, -0.06835, -0.32460), (-0.04550, -0.06835, -0.32460)]
                    uniform token subdivisionScheme = "none"
                    rel material:binding = </World/Looks/ServerHeatsink>
                }
            }
        }

        def Xform "SolarArray"
        {
            def Xform "WingPosY"
            {
                def Mesh "Boom" (
                    prepend apiSchemas = ["MaterialBindingAPI"]
                )
                {
                    uniform bool doubleSided = 1
                    float3[] extent = [(0.01500, 0.08000, -0.03900), (0.04500, 0.47000, -0.00900)]
                    int[] faceVertexCounts = [4, 4, 4, 4, 4, 4]
                    int[] faceVertexIndices = [0, 3, 2, 1, 4, 5, 6, 7, 0, 1, 5, 4, 2, 3, 7, 6, 1, 2, 6, 5, 0, 4, 7, 3]
                    point3f[] points = [(0.01500, 0.08000, -0.03900), (0.04500, 0.08000, -0.03900), (0.04500, 0.47000, -0.03900), (0.01500, 0.47000, -0.03900), (0.01500, 0.08000, -0.00900), (0.04500, 0.08000, -0.00900), (0.04500, 0.47000, -0.00900), (0.01500, 0.47000, -0.00900)]
                    uniform token subdivisionScheme = "none"
                    rel material:binding = </World/Looks/SolarFrame>
                }
                def Mesh "Frame_0" (
                    prepend apiSchemas = ["MaterialBindingAPI"]
                )
                {
                    uniform bool doubleSided = 1
                    float3[] extent = [(0.03000, 0.47000, -0.68400), (0.04600, 0.78000, 0.63600)]
                    int[] faceVertexCounts = [4, 4, 4, 4, 4, 4]
                    int[] faceVertexIndices = [0, 3, 2, 1, 4, 5, 6, 7, 0, 1, 5, 4, 2, 3, 7, 6, 1, 2, 6, 5, 0, 4, 7, 3]
                    point3f[] points = [(0.03000, 0.47000, -0.68400), (0.04600, 0.47000, -0.68400), (0.04600, 0.78000, -0.68400), (0.03000, 0.78000, -0.68400), (0.03000, 0.47000, 0.63600), (0.04600, 0.47000, 0.63600), (0.04600, 0.78000, 0.63600), (0.03000, 0.78000, 0.63600)]
                    uniform token subdivisionScheme = "none"
                    rel material:binding = </World/Looks/SolarFrame>
                }
                def Mesh "Cell_0" (
                    prepend apiSchemas = ["MaterialBindingAPI"]
                )
                {
                    uniform bool doubleSided = 1
                    float3[] extent = [(0.04600, 0.47930, -0.65760), (0.05600, 0.77070, 0.60960)]
                    int[] faceVertexCounts = [4, 4, 4, 4, 4, 4]
                    int[] faceVertexIndices = [0, 3, 2, 1, 4, 5, 6, 7, 0, 1, 5, 4, 2, 3, 7, 6, 1, 2, 6, 5, 0, 4, 7, 3]
                    point3f[] points = [(0.04600, 0.47930, -0.65760), (0.05600, 0.47930, -0.65760), (0.05600, 0.77070, -0.65760), (0.04600, 0.77070, -0.65760), (0.04600, 0.47930, 0.60960), (0.05600, 0.47930, 0.60960), (0.05600, 0.77070, 0.60960), (0.04600, 0.77070, 0.60960)]
                    uniform token subdivisionScheme = "none"
                    rel material:binding = </World/Looks/SolarCell>
                }
                def Mesh "Frame_1" (
                    prepend apiSchemas = ["MaterialBindingAPI"]
                )
                {
                    uniform bool doubleSided = 1
                    float3[] extent = [(0.03000, 0.80500, -0.68400), (0.04600, 1.11500, 0.63600)]
                    int[] faceVertexCounts = [4, 4, 4, 4, 4, 4]
                    int[] faceVertexIndices = [0, 3, 2, 1, 4, 5, 6, 7, 0, 1, 5, 4, 2, 3, 7, 6, 1, 2, 6, 5, 0, 4, 7, 3]
                    point3f[] points = [(0.03000, 0.80500, -0.68400), (0.04600, 0.80500, -0.68400), (0.04600, 1.11500, -0.68400), (0.03000, 1.11500, -0.68400), (0.03000, 0.80500, 0.63600), (0.04600, 0.80500, 0.63600), (0.04600, 1.11500, 0.63600), (0.03000, 1.11500, 0.63600)]
                    uniform token subdivisionScheme = "none"
                    rel material:binding = </World/Looks/SolarFrame>
                }
                def Mesh "Cell_1" (
                    prepend apiSchemas = ["MaterialBindingAPI"]
                )
                {
                    uniform bool doubleSided = 1
                    float3[] extent = [(0.04600, 0.81430, -0.65760), (0.05600, 1.10570, 0.60960)]
                    int[] faceVertexCounts = [4, 4, 4, 4, 4, 4]
                    int[] faceVertexIndices = [0, 3, 2, 1, 4, 5, 6, 7, 0, 1, 5, 4, 2, 3, 7, 6, 1, 2, 6, 5, 0, 4, 7, 3]
                    point3f[] points = [(0.04600, 0.81430, -0.65760), (0.05600, 0.81430, -0.65760), (0.05600, 1.10570, -0.65760), (0.04600, 1.10570, -0.65760), (0.04600, 0.81430, 0.60960), (0.05600, 0.81430, 0.60960), (0.05600, 1.10570, 0.60960), (0.04600, 1.10570, 0.60960)]
                    uniform token subdivisionScheme = "none"
                    rel material:binding = </World/Looks/SolarCell>
                }
                def Mesh "Frame_2" (
                    prepend apiSchemas = ["MaterialBindingAPI"]
                )
                {
                    uniform bool doubleSided = 1
                    float3[] extent = [(0.03000, 1.14000, -0.68400), (0.04600, 1.45000, 0.63600)]
                    int[] faceVertexCounts = [4, 4, 4, 4, 4, 4]
                    int[] faceVertexIndices = [0, 3, 2, 1, 4, 5, 6, 7, 0, 1, 5, 4, 2, 3, 7, 6, 1, 2, 6, 5, 0, 4, 7, 3]
                    point3f[] points = [(0.03000, 1.14000, -0.68400), (0.04600, 1.14000, -0.68400), (0.04600, 1.45000, -0.68400), (0.03000, 1.45000, -0.68400), (0.03000, 1.14000, 0.63600), (0.04600, 1.14000, 0.63600), (0.04600, 1.45000, 0.63600), (0.03000, 1.45000, 0.63600)]
                    uniform token subdivisionScheme = "none"
                    rel material:binding = </World/Looks/SolarFrame>
                }
                def Mesh "Cell_2" (
                    prepend apiSchemas = ["MaterialBindingAPI"]
                )
                {
                    uniform bool doubleSided = 1
                    float3[] extent = [(0.04600, 1.14930, -0.65760), (0.05600, 1.44070, 0.60960)]
                    int[] faceVertexCounts = [4, 4, 4, 4, 4, 4]
                    int[] faceVertexIndices = [0, 3, 2, 1, 4, 5, 6, 7, 0, 1, 5, 4, 2, 3, 7, 6, 1, 2, 6, 5, 0, 4, 7, 3]
                    point3f[] points = [(0.04600, 1.14930, -0.65760), (0.05600, 1.14930, -0.65760), (0.05600, 1.44070, -0.65760), (0.04600, 1.44070, -0.65760), (0.04600, 1.14930, 0.60960), (0.05600, 1.14930, 0.60960), (0.05600, 1.44070, 0.60960), (0.04600, 1.44070, 0.60960)]
                    uniform token subdivisionScheme = "none"
                    rel material:binding = </World/Looks/SolarCell>
                }
            }
            def Xform "WingNegY"
            {
                def Mesh "Boom" (
                    prepend apiSchemas = ["MaterialBindingAPI"]
                )
                {
                    uniform bool doubleSided = 1
                    float3[] extent = [(0.01500, -0.47000, -0.03900), (0.04500, -0.08000, -0.00900)]
                    int[] faceVertexCounts = [4, 4, 4, 4, 4, 4]
                    int[] faceVertexIndices = [0, 3, 2, 1, 4, 5, 6, 7, 0, 1, 5, 4, 2, 3, 7, 6, 1, 2, 6, 5, 0, 4, 7, 3]
                    point3f[] points = [(0.01500, -0.47000, -0.03900), (0.04500, -0.47000, -0.03900), (0.04500, -0.08000, -0.03900), (0.01500, -0.08000, -0.03900), (0.01500, -0.47000, -0.00900), (0.04500, -0.47000, -0.00900), (0.04500, -0.08000, -0.00900), (0.01500, -0.08000, -0.00900)]
                    uniform token subdivisionScheme = "none"
                    rel material:binding = </World/Looks/SolarFrame>
                }
                def Mesh "Frame_0" (
                    prepend apiSchemas = ["MaterialBindingAPI"]
                )
                {
                    uniform bool doubleSided = 1
                    float3[] extent = [(0.03000, -0.78000, -0.68400), (0.04600, -0.47000, 0.63600)]
                    int[] faceVertexCounts = [4, 4, 4, 4, 4, 4]
                    int[] faceVertexIndices = [0, 3, 2, 1, 4, 5, 6, 7, 0, 1, 5, 4, 2, 3, 7, 6, 1, 2, 6, 5, 0, 4, 7, 3]
                    point3f[] points = [(0.03000, -0.78000, -0.68400), (0.04600, -0.78000, -0.68400), (0.04600, -0.47000, -0.68400), (0.03000, -0.47000, -0.68400), (0.03000, -0.78000, 0.63600), (0.04600, -0.78000, 0.63600), (0.04600, -0.47000, 0.63600), (0.03000, -0.47000, 0.63600)]
                    uniform token subdivisionScheme = "none"
                    rel material:binding = </World/Looks/SolarFrame>
                }
                def Mesh "Cell_0" (
                    prepend apiSchemas = ["MaterialBindingAPI"]
                )
                {
                    uniform bool doubleSided = 1
                    float3[] extent = [(0.04600, -0.77070, -0.65760), (0.05600, -0.47930, 0.60960)]
                    int[] faceVertexCounts = [4, 4, 4, 4, 4, 4]
                    int[] faceVertexIndices = [0, 3, 2, 1, 4, 5, 6, 7, 0, 1, 5, 4, 2, 3, 7, 6, 1, 2, 6, 5, 0, 4, 7, 3]
                    point3f[] points = [(0.04600, -0.77070, -0.65760), (0.05600, -0.77070, -0.65760), (0.05600, -0.47930, -0.65760), (0.04600, -0.47930, -0.65760), (0.04600, -0.77070, 0.60960), (0.05600, -0.77070, 0.60960), (0.05600, -0.47930, 0.60960), (0.04600, -0.47930, 0.60960)]
                    uniform token subdivisionScheme = "none"
                    rel material:binding = </World/Looks/SolarCell>
                }
                def Mesh "Frame_1" (
                    prepend apiSchemas = ["MaterialBindingAPI"]
                )
                {
                    uniform bool doubleSided = 1
                    float3[] extent = [(0.03000, -1.11500, -0.68400), (0.04600, -0.80500, 0.63600)]
                    int[] faceVertexCounts = [4, 4, 4, 4, 4, 4]
                    int[] faceVertexIndices = [0, 3, 2, 1, 4, 5, 6, 7, 0, 1, 5, 4, 2, 3, 7, 6, 1, 2, 6, 5, 0, 4, 7, 3]
                    point3f[] points = [(0.03000, -1.11500, -0.68400), (0.04600, -1.11500, -0.68400), (0.04600, -0.80500, -0.68400), (0.03000, -0.80500, -0.68400), (0.03000, -1.11500, 0.63600), (0.04600, -1.11500, 0.63600), (0.04600, -0.80500, 0.63600), (0.03000, -0.80500, 0.63600)]
                    uniform token subdivisionScheme = "none"
                    rel material:binding = </World/Looks/SolarFrame>
                }
                def Mesh "Cell_1" (
                    prepend apiSchemas = ["MaterialBindingAPI"]
                )
                {
                    uniform bool doubleSided = 1
                    float3[] extent = [(0.04600, -1.10570, -0.65760), (0.05600, -0.81430, 0.60960)]
                    int[] faceVertexCounts = [4, 4, 4, 4, 4, 4]
                    int[] faceVertexIndices = [0, 3, 2, 1, 4, 5, 6, 7, 0, 1, 5, 4, 2, 3, 7, 6, 1, 2, 6, 5, 0, 4, 7, 3]
                    point3f[] points = [(0.04600, -1.10570, -0.65760), (0.05600, -1.10570, -0.65760), (0.05600, -0.81430, -0.65760), (0.04600, -0.81430, -0.65760), (0.04600, -1.10570, 0.60960), (0.05600, -1.10570, 0.60960), (0.05600, -0.81430, 0.60960), (0.04600, -0.81430, 0.60960)]
                    uniform token subdivisionScheme = "none"
                    rel material:binding = </World/Looks/SolarCell>
                }
                def Mesh "Frame_2" (
                    prepend apiSchemas = ["MaterialBindingAPI"]
                )
                {
                    uniform bool doubleSided = 1
                    float3[] extent = [(0.03000, -1.45000, -0.68400), (0.04600, -1.14000, 0.63600)]
                    int[] faceVertexCounts = [4, 4, 4, 4, 4, 4]
                    int[] faceVertexIndices = [0, 3, 2, 1, 4, 5, 6, 7, 0, 1, 5, 4, 2, 3, 7, 6, 1, 2, 6, 5, 0, 4, 7, 3]
                    point3f[] points = [(0.03000, -1.45000, -0.68400), (0.04600, -1.45000, -0.68400), (0.04600, -1.14000, -0.68400), (0.03000, -1.14000, -0.68400), (0.03000, -1.45000, 0.63600), (0.04600, -1.45000, 0.63600), (0.04600, -1.14000, 0.63600), (0.03000, -1.14000, 0.63600)]
                    uniform token subdivisionScheme = "none"
                    rel material:binding = </World/Looks/SolarFrame>
                }
                def Mesh "Cell_2" (
                    prepend apiSchemas = ["MaterialBindingAPI"]
                )
                {
                    uniform bool doubleSided = 1
                    float3[] extent = [(0.04600, -1.44070, -0.65760), (0.05600, -1.14930, 0.60960)]
                    int[] faceVertexCounts = [4, 4, 4, 4, 4, 4]
                    int[] faceVertexIndices = [0, 3, 2, 1, 4, 5, 6, 7, 0, 1, 5, 4, 2, 3, 7, 6, 1, 2, 6, 5, 0, 4, 7, 3]
                    point3f[] points = [(0.04600, -1.44070, -0.65760), (0.05600, -1.44070, -0.65760), (0.05600, -1.14930, -0.65760), (0.04600, -1.14930, -0.65760), (0.04600, -1.44070, 0.60960), (0.05600, -1.44070, 0.60960), (0.05600, -1.14930, 0.60960), (0.04600, -1.14930, 0.60960)]
                    uniform token subdivisionScheme = "none"
                    rel material:binding = </World/Looks/SolarCell>
                }
            }
        }
    }

    def Xform "Cameras"
    {
        def Camera "Closeup"
        {
            float focalLength = 32.0
            float focusDistance = 936
            float2 clippingRange = (1, 5000)
            matrix4d xformOp:transform = (
                    (0.14296, 0.98973, -0.00000, 0.00000),
                    (-0.23273, 0.03362, 0.97196, 0.00000),
                    (0.96198, -0.13895, 0.23515, 0.00000),
                    (900.00000, -130.00000, 220.00000, 1.00000)
            )
            uniform token[] xformOpOrder = ["xformOp:transform"]
        }
    }
}
